<?xml version="1.0" encoding="UTF-8" standalone="no"?>
<!DOCTYPE svg PUBLIC "-//W3C//DTD SVG 1.1//EN"
 "http://www.w3.org/Graphics/SVG/1.1/DTD/svg11.dtd">
<!-- Generated by graphviz version 2.42.4 (0)
 -->
<!-- Title: sip_fraud_flood_ir Pages: 1 -->
<svg width="515pt" height="609pt"
 viewBox="0.00 0.00 515.00 609.00" xmlns="http://www.w3.org/2000/svg" xmlns:xlink="http://www.w3.org/1999/xlink">
<g id="graph0" class="graph" transform="scale(1 1) rotate(0) translate(4 605)">
<title>sip_fraud_flood_ir</title>
<polygon fill="white" stroke="transparent" points="-4,4 -4,-605 511,-605 511,4 -4,4"/>
<text text-anchor="middle" x="253.5" y="-587.4" font-family="Helvetica,sans-Serif" font-size="12.00">Incident response — toll fraud and INVITE/REGISTER flood through one IR lifecycle</text>
<g id="clust1" class="cluster">
<title>cluster_detect</title>
<path fill="none" stroke="#9fb3c8" d="M59.5,-499C59.5,-499 469.5,-499 469.5,-499 475.5,-499 481.5,-505 481.5,-511 481.5,-511 481.5,-560 481.5,-560 481.5,-566 475.5,-572 469.5,-572 469.5,-572 59.5,-572 59.5,-572 53.5,-572 47.5,-566 47.5,-560 47.5,-560 47.5,-511 47.5,-511 47.5,-505 53.5,-499 59.5,-499"/>
<text text-anchor="middle" x="264.5" y="-558.4" font-family="Helvetica,sans-Serif" font-size="12.00">Detect (from monitoring, M17)</text>
</g>
<g id="clust2" class="cluster">
<title>cluster_contain</title>
<path fill="none" stroke="#f0c088" d="M27.5,-316C27.5,-316 479.5,-316 479.5,-316 485.5,-316 491.5,-322 491.5,-328 491.5,-328 491.5,-377 491.5,-377 491.5,-383 485.5,-389 479.5,-389 479.5,-389 27.5,-389 27.5,-389 21.5,-389 15.5,-383 15.5,-377 15.5,-377 15.5,-328 15.5,-328 15.5,-322 21.5,-316 27.5,-316"/>
<text text-anchor="middle" x="253.5" y="-375.4" font-family="Helvetica,sans-Serif" font-size="12.00">Contain (differs by incident)</text>
</g>
<!-- df -->
<g id="node1" class="node">
<title>df</title>
<path fill="#ffe8cc" stroke="#33445a" d="M241,-543C241,-543 68,-543 68,-543 62,-543 56,-537 56,-531 56,-531 56,-519 56,-519 56,-513 62,-507 68,-507 68,-507 241,-507 241,-507 247,-507 253,-513 253,-519 253,-519 253,-531 253,-531 253,-537 247,-543 241,-543"/>
<text text-anchor="middle" x="154.5" y="-528.2" font-family="Helvetica,sans-Serif" font-size="11.00">Toll fraud (T4)</text>
<text text-anchor="middle" x="154.5" y="-516.2" font-family="Helvetica,sans-Serif" font-size="11.00">spend / velocity / off&#45;hours spike</text>
</g>
<!-- triage -->
<g id="node3" class="node">
<title>triage</title>
<path fill="#dbeafe" stroke="#33445a" d="M292.5,-470C292.5,-470 34.5,-470 34.5,-470 28.5,-470 22.5,-464 22.5,-458 22.5,-458 22.5,-438 22.5,-438 22.5,-432 28.5,-426 34.5,-426 34.5,-426 292.5,-426 292.5,-426 298.5,-426 304.5,-432 304.5,-438 304.5,-438 304.5,-458 304.5,-458 304.5,-464 298.5,-470 292.5,-470"/>
<text text-anchor="middle" x="163.5" y="-457.2" font-family="Helvetica,sans-Serif" font-size="11.00">Triage</text>
<text text-anchor="middle" x="163.5" y="-445.2" font-family="Helvetica,sans-Serif" font-size="11.00">identify account/source, scope, attack vs. surge</text>
<text text-anchor="middle" x="163.5" y="-433.2" font-family="Helvetica,sans-Serif" font-size="11.00">(pull CDR + HOMER trace)</text>
</g>
<!-- df&#45;&gt;triage -->
<g id="edge1" class="edge">
<title>df&#45;&gt;triage</title>
<path fill="none" stroke="#33445a" d="M156.54,-506.98C157.49,-499.07 158.65,-489.4 159.75,-480.24"/>
<polygon fill="#33445a" stroke="#33445a" points="163.23,-480.59 160.95,-470.24 156.28,-479.76 163.23,-480.59"/>
</g>
<!-- dl -->
<g id="node2" class="node">
<title>dl</title>
<path fill="#ffe8cc" stroke="#33445a" d="M462,-543C462,-543 283,-543 283,-543 277,-543 271,-537 271,-531 271,-531 271,-519 271,-519 271,-513 277,-507 283,-507 283,-507 462,-507 462,-507 468,-507 474,-513 474,-519 474,-519 474,-531 474,-531 474,-537 468,-543 462,-543"/>
<text text-anchor="middle" x="372.5" y="-528.2" font-family="Helvetica,sans-Serif" font-size="11.00">Flood (T8)</text>
<text text-anchor="middle" x="372.5" y="-516.2" font-family="Helvetica,sans-Serif" font-size="11.00">CPS / registration&#45;rate / 4xx spike</text>
</g>
<!-- dl&#45;&gt;triage -->
<g id="edge2" class="edge">
<title>dl&#45;&gt;triage</title>
<path fill="none" stroke="#33445a" d="M325.07,-506.98C297.58,-497.11 262.48,-484.52 232.03,-473.59"/>
<polygon fill="#33445a" stroke="#33445a" points="232.91,-470.19 222.32,-470.11 230.55,-476.78 232.91,-470.19"/>
</g>
<!-- cf -->
<g id="node4" class="node">
<title>cf</title>
<path fill="#ffe8cc" stroke="#33445a" d="M233.5,-360C233.5,-360 35.5,-360 35.5,-360 29.5,-360 23.5,-354 23.5,-348 23.5,-348 23.5,-336 23.5,-336 23.5,-330 29.5,-324 35.5,-324 35.5,-324 233.5,-324 233.5,-324 239.5,-324 245.5,-330 245.5,-336 245.5,-336 245.5,-348 245.5,-348 245.5,-354 239.5,-360 233.5,-360"/>
<text text-anchor="middle" x="134.5" y="-345.2" font-family="Helvetica,sans-Serif" font-size="11.00">Fraud: suspend account, block</text>
<text text-anchor="middle" x="134.5" y="-333.2" font-family="Helvetica,sans-Serif" font-size="11.00">destination range, enforce spend cap</text>
</g>
<!-- triage&#45;&gt;cf -->
<g id="edge3" class="edge">
<title>triage&#45;&gt;cf</title>
<path fill="none" stroke="#33445a" d="M157.63,-425.95C153.16,-409.93 146.98,-387.74 142.12,-370.34"/>
<polygon fill="#33445a" stroke="#33445a" points="145.36,-368.92 139.3,-360.23 138.62,-370.8 145.36,-368.92"/>
<text text-anchor="middle" x="164.5" y="-400" font-family="Helvetica,sans-Serif" font-size="10.00">fraud</text>
</g>
<!-- cl -->
<g id="node5" class="node">
<title>cl</title>
<path fill="#ffe8cc" stroke="#33445a" d="M471,-360C471,-360 276,-360 276,-360 270,-360 264,-354 264,-348 264,-348 264,-336 264,-336 264,-330 270,-324 276,-324 276,-324 471,-324 471,-324 477,-324 483,-330 483,-336 483,-336 483,-348 483,-348 483,-354 477,-360 471,-360"/>
<text text-anchor="middle" x="373.5" y="-345.2" font-family="Helvetica,sans-Serif" font-size="11.00">Flood: nftables rate&#45;limit / geo&#45;block,</text>
<text text-anchor="middle" x="373.5" y="-333.2" font-family="Helvetica,sans-Serif" font-size="11.00">`pike` tighten, fail2ban, scale/roll</text>
</g>
<!-- triage&#45;&gt;cl -->
<g id="edge4" class="edge">
<title>triage&#45;&gt;cl</title>
<path fill="none" stroke="#33445a" d="M206,-425.95C241.97,-408.14 293.34,-382.7 329.68,-364.7"/>
<polygon fill="#33445a" stroke="#33445a" points="331.64,-367.64 339.05,-360.06 328.53,-361.36 331.64,-367.64"/>
<text text-anchor="middle" x="274" y="-400" font-family="Helvetica,sans-Serif" font-size="10.00">flood</text>
</g>
<!-- erad -->
<g id="node6" class="node">
<title>erad</title>
<path fill="#dbeafe" stroke="#33445a" d="M391,-287C391,-287 116,-287 116,-287 110,-287 104,-281 104,-275 104,-275 104,-255 104,-255 104,-249 110,-243 116,-243 116,-243 391,-243 391,-243 397,-243 403,-249 403,-255 403,-255 403,-275 403,-275 403,-281 397,-287 391,-287"/>
<text text-anchor="middle" x="253.5" y="-274.2" font-family="Helvetica,sans-Serif" font-size="11.00">Eradicate</text>
<text text-anchor="middle" x="253.5" y="-262.2" font-family="Helvetica,sans-Serif" font-size="11.00">find entry (weak secret? open 5060? provisioning?)</text>
<text text-anchor="middle" x="253.5" y="-250.2" font-family="Helvetica,sans-Serif" font-size="11.00">rotate creds; tune thresholds</text>
</g>
<!-- cf&#45;&gt;erad -->
<g id="edge5" class="edge">
<title>cf&#45;&gt;erad</title>
<path fill="none" stroke="#33445a" d="M161.5,-323.98C176.08,-314.79 194.42,-303.24 210.88,-292.86"/>
<polygon fill="#33445a" stroke="#33445a" points="213.2,-295.54 219.79,-287.24 209.47,-289.62 213.2,-295.54"/>
</g>
<!-- cl&#45;&gt;erad -->
<g id="edge6" class="edge">
<title>cl&#45;&gt;erad</title>
<path fill="none" stroke="#33445a" d="M346.27,-323.98C331.43,-314.71 312.73,-303.02 296.02,-292.57"/>
<polygon fill="#33445a" stroke="#33445a" points="297.83,-289.58 287.49,-287.24 294.12,-295.51 297.83,-289.58"/>
</g>
<!-- recov -->
<g id="node7" class="node">
<title>recov</title>
<path fill="#d3f9d8" stroke="#33445a" d="M350.5,-206C350.5,-206 156.5,-206 156.5,-206 150.5,-206 144.5,-200 144.5,-194 144.5,-194 144.5,-174 144.5,-174 144.5,-168 150.5,-162 156.5,-162 156.5,-162 350.5,-162 350.5,-162 356.5,-162 362.5,-168 362.5,-174 362.5,-174 362.5,-194 362.5,-194 362.5,-200 356.5,-206 350.5,-206"/>
<text text-anchor="middle" x="253.5" y="-193.2" font-family="Helvetica,sans-Serif" font-size="11.00">Recover</text>
<text text-anchor="middle" x="253.5" y="-181.2" font-family="Helvetica,sans-Serif" font-size="11.00">re&#45;enable w/ tighter class&#45;of&#45;service;</text>
<text text-anchor="middle" x="253.5" y="-169.2" font-family="Helvetica,sans-Serif" font-size="11.00">confirm KPIs normalise</text>
</g>
<!-- erad&#45;&gt;recov -->
<g id="edge7" class="edge">
<title>erad&#45;&gt;recov</title>
<path fill="none" stroke="#33445a" d="M253.5,-242.83C253.5,-234.68 253.5,-225.2 253.5,-216.3"/>
<polygon fill="#33445a" stroke="#33445a" points="257,-216.23 253.5,-206.23 250,-216.23 257,-216.23"/>
</g>
<!-- review -->
<g id="node8" class="node">
<title>review</title>
<path fill="#d3f9d8" stroke="#33445a" d="M374.5,-125C374.5,-125 132.5,-125 132.5,-125 126.5,-125 120.5,-119 120.5,-113 120.5,-113 120.5,-93 120.5,-93 120.5,-87 126.5,-81 132.5,-81 132.5,-81 374.5,-81 374.5,-81 380.5,-81 386.5,-87 386.5,-93 386.5,-93 386.5,-113 386.5,-113 386.5,-119 380.5,-125 374.5,-125"/>
<text text-anchor="middle" x="253.5" y="-112.2" font-family="Helvetica,sans-Serif" font-size="11.00">Review</text>
<text text-anchor="middle" x="253.5" y="-100.2" font-family="Helvetica,sans-Serif" font-size="11.00">root cause, loss estimate, control gap</text>
<text text-anchor="middle" x="253.5" y="-88.2" font-family="Helvetica,sans-Serif" font-size="11.00">→ update threat model + hardening checklist</text>
</g>
<!-- recov&#45;&gt;review -->
<g id="edge8" class="edge">
<title>recov&#45;&gt;review</title>
<path fill="none" stroke="#33445a" d="M253.5,-161.83C253.5,-153.68 253.5,-144.2 253.5,-135.3"/>
<polygon fill="#33445a" stroke="#33445a" points="257,-135.23 253.5,-125.23 250,-135.23 257,-135.23"/>
</g>
<!-- note -->
<g id="node9" class="node">
<title>note</title>
<polygon fill="#fff3bf" stroke="#b8860b" points="449.5,-44 51.5,-44 51.5,0 455.5,0 455.5,-38 449.5,-44"/>
<polyline fill="none" stroke="#b8860b" points="449.5,-44 449.5,-38 "/>
<polyline fill="none" stroke="#b8860b" points="455.5,-38 449.5,-38 "/>
<text text-anchor="middle" x="253.5" y="-31.2" font-family="Helvetica,sans-Serif" font-size="11.00">A hard spend/velocity cap BOUNDS the loss even if prevention fails —</text>
<text text-anchor="middle" x="253.5" y="-19.2" font-family="Helvetica,sans-Serif" font-size="11.00">the top toll&#45;fraud control. &#39;Find the entry&#39; prevents recurrence:</text>
<text text-anchor="middle" x="253.5" y="-7.2" font-family="Helvetica,sans-Serif" font-size="11.00">recovering without closing the entry point just resets the clock.</text>
</g>
<!-- review&#45;&gt;note -->
<g id="edge9" class="edge">
<title>review&#45;&gt;note</title>
<path fill="none" stroke="#b8860b" stroke-dasharray="5,2" d="M253.5,-80.83C253.5,-69.49 253.5,-55.57 253.5,-44.23"/>
</g>
</g>
</svg>
