<?xml version="1.0" encoding="UTF-8" standalone="no"?>
<!DOCTYPE svg PUBLIC "-//W3C//DTD SVG 1.1//EN"
 "http://www.w3.org/Graphics/SVG/1.1/DTD/svg11.dtd">
<!-- Generated by graphviz version 2.42.4 (0)
 -->
<!-- Title: sip_stir_shaken Pages: 1 -->
<svg width="562pt" height="733pt"
 viewBox="0.00 0.00 562.00 733.00" xmlns="http://www.w3.org/2000/svg" xmlns:xlink="http://www.w3.org/1999/xlink">
<g id="graph0" class="graph" transform="scale(1 1) rotate(0) translate(4 729)">
<title>sip_stir_shaken</title>
<polygon fill="white" stroke="transparent" points="-4,4 -4,-729 558,-729 558,4 -4,4"/>
<text text-anchor="middle" x="277" y="-711.4" font-family="Helvetica,sans-Serif" font-size="12.00">STIR/SHAKEN — sign at origination, verify at termination (pass / fail)</text>
<g id="clust1" class="cluster">
<title>cluster_orig</title>
<path fill="none" stroke="#9fb3c8" d="M164,-404C164,-404 486,-404 486,-404 492,-404 498,-410 498,-416 498,-416 498,-684 498,-684 498,-690 492,-696 486,-696 486,-696 164,-696 164,-696 158,-696 152,-690 152,-684 152,-684 152,-416 152,-416 152,-410 158,-404 164,-404"/>
<text text-anchor="middle" x="325" y="-682.4" font-family="Helvetica,sans-Serif" font-size="12.00">Originating carrier — authentication service (STIR sign)</text>
</g>
<g id="clust2" class="cluster">
<title>cluster_term</title>
<path fill="none" stroke="#9fb3c8" d="M131,-156C131,-156 446,-156 446,-156 452,-156 458,-162 458,-168 458,-168 458,-363 458,-363 458,-369 452,-375 446,-375 446,-375 131,-375 131,-375 125,-375 119,-369 119,-363 119,-363 119,-168 119,-168 119,-162 125,-156 131,-156"/>
<text text-anchor="middle" x="288.5" y="-361.4" font-family="Helvetica,sans-Serif" font-size="12.00">Terminating carrier — verification service (STIR verify)</text>
</g>
<!-- o0 -->
<g id="node1" class="node">
<title>o0</title>
<path fill="#dbeafe" stroke="#33445a" d="M356.5,-667C356.5,-667 219.5,-667 219.5,-667 213.5,-667 207.5,-661 207.5,-655 207.5,-655 207.5,-643 207.5,-643 207.5,-637 213.5,-631 219.5,-631 219.5,-631 356.5,-631 356.5,-631 362.5,-631 368.5,-637 368.5,-643 368.5,-643 368.5,-655 368.5,-655 368.5,-661 362.5,-667 356.5,-667"/>
<text text-anchor="middle" x="288" y="-652.2" font-family="Helvetica,sans-Serif" font-size="11.00">Caller → INVITE</text>
<text text-anchor="middle" x="288" y="-640.2" font-family="Helvetica,sans-Serif" font-size="11.00">(calling + called numbers)</text>
</g>
<!-- o1 -->
<g id="node2" class="node">
<title>o1</title>
<path fill="#e5dbff" stroke="#33445a" d="M361,-594C361,-594 215,-594 215,-594 209,-594 203,-588 203,-582 203,-582 203,-570 203,-570 203,-564 209,-558 215,-558 215,-558 361,-558 361,-558 367,-558 373,-564 373,-570 373,-570 373,-582 373,-582 373,-588 367,-594 361,-594"/>
<text text-anchor="middle" x="288" y="-579.2" font-family="Helvetica,sans-Serif" font-size="11.00">Authenticate the subscriber</text>
<text text-anchor="middle" x="288" y="-567.2" font-family="Helvetica,sans-Serif" font-size="11.00">+ their right to the number</text>
</g>
<!-- o0&#45;&gt;o1 -->
<g id="edge1" class="edge">
<title>o0&#45;&gt;o1</title>
<path fill="none" stroke="#33445a" d="M288,-630.81C288,-622.79 288,-613.05 288,-604.07"/>
<polygon fill="#33445a" stroke="#33445a" points="291.5,-604.03 288,-594.03 284.5,-604.03 291.5,-604.03"/>
</g>
<!-- o2 -->
<g id="node3" class="node">
<title>o2</title>
<path fill="#e5dbff" stroke="#33445a" d="M370,-521C370,-521 206,-521 206,-521 200,-521 194,-515 194,-509 194,-509 194,-497 194,-497 194,-491 200,-485 206,-485 206,-485 370,-485 370,-485 376,-485 382,-491 382,-497 382,-497 382,-509 382,-509 382,-515 376,-521 370,-521"/>
<text text-anchor="middle" x="288" y="-506.2" font-family="Helvetica,sans-Serif" font-size="11.00">Build PASSporT (RFC 8225)</text>
<text text-anchor="middle" x="288" y="-494.2" font-family="Helvetica,sans-Serif" font-size="11.00">signed JWT + attestation A/B/C</text>
</g>
<!-- o1&#45;&gt;o2 -->
<g id="edge2" class="edge">
<title>o1&#45;&gt;o2</title>
<path fill="none" stroke="#33445a" d="M288,-557.81C288,-549.79 288,-540.05 288,-531.07"/>
<polygon fill="#33445a" stroke="#33445a" points="291.5,-531.03 288,-521.03 284.5,-531.03 291.5,-531.03"/>
</g>
<!-- o3 -->
<g id="node4" class="node">
<title>o3</title>
<path fill="#dbeafe" stroke="#33445a" d="M371,-448C371,-448 205,-448 205,-448 199,-448 193,-442 193,-436 193,-436 193,-424 193,-424 193,-418 199,-412 205,-412 205,-412 371,-412 371,-412 377,-412 383,-418 383,-424 383,-424 383,-436 383,-436 383,-442 377,-448 371,-448"/>
<text text-anchor="middle" x="288" y="-433.2" font-family="Helvetica,sans-Serif" font-size="11.00">Add Identity header (RFC 8224)</text>
<text text-anchor="middle" x="288" y="-421.2" font-family="Helvetica,sans-Serif" font-size="11.00">→ forward INVITE</text>
</g>
<!-- o2&#45;&gt;o3 -->
<g id="edge3" class="edge">
<title>o2&#45;&gt;o3</title>
<path fill="none" stroke="#33445a" d="M288,-484.81C288,-476.79 288,-467.05 288,-458.07"/>
<polygon fill="#33445a" stroke="#33445a" points="291.5,-458.03 288,-448.03 284.5,-458.03 291.5,-458.03"/>
</g>
<!-- v0 -->
<g id="node5" class="node">
<title>v0</title>
<path fill="#dbeafe" stroke="#33445a" d="M376,-346C376,-346 200,-346 200,-346 194,-346 188,-340 188,-334 188,-334 188,-322 188,-322 188,-316 194,-310 200,-310 200,-310 376,-310 376,-310 382,-310 388,-316 388,-322 388,-322 388,-334 388,-334 388,-340 382,-346 376,-346"/>
<text text-anchor="middle" x="288" y="-325.2" font-family="Helvetica,sans-Serif" font-size="11.00">Receive INVITE + Identity header</text>
</g>
<!-- o3&#45;&gt;v0 -->
<g id="edge6" class="edge">
<title>o3&#45;&gt;v0</title>
<path fill="none" stroke="#2b8a3e" d="M288,-411.58C288,-396.38 288,-374.07 288,-356.46"/>
<polygon fill="#2b8a3e" stroke="#2b8a3e" points="291.5,-356.22 288,-346.22 284.5,-356.22 291.5,-356.22"/>
<text text-anchor="middle" x="335" y="-386" font-family="Helvetica,sans-Serif" font-size="10.00">across the network</text>
</g>
<!-- v1 -->
<g id="node6" class="node">
<title>v1</title>
<path fill="#e5dbff" stroke="#33445a" d="M365.5,-273C365.5,-273 210.5,-273 210.5,-273 204.5,-273 198.5,-267 198.5,-261 198.5,-261 198.5,-249 198.5,-249 198.5,-243 204.5,-237 210.5,-237 210.5,-237 365.5,-237 365.5,-237 371.5,-237 377.5,-243 377.5,-249 377.5,-249 377.5,-261 377.5,-261 377.5,-267 371.5,-273 365.5,-273"/>
<text text-anchor="middle" x="288" y="-258.2" font-family="Helvetica,sans-Serif" font-size="11.00">Fetch signing cert (RFC 8226)</text>
<text text-anchor="middle" x="288" y="-246.2" font-family="Helvetica,sans-Serif" font-size="11.00">validate the STI&#45;CA chain</text>
</g>
<!-- v0&#45;&gt;v1 -->
<g id="edge4" class="edge">
<title>v0&#45;&gt;v1</title>
<path fill="none" stroke="#33445a" d="M288,-309.81C288,-301.79 288,-292.05 288,-283.07"/>
<polygon fill="#33445a" stroke="#33445a" points="291.5,-283.03 288,-273.03 284.5,-283.03 291.5,-283.03"/>
</g>
<!-- v2 -->
<g id="node7" class="node">
<title>v2</title>
<path fill="#e5dbff" stroke="#33445a" d="M355.5,-200C355.5,-200 220.5,-200 220.5,-200 214.5,-200 208.5,-194 208.5,-188 208.5,-188 208.5,-176 208.5,-176 208.5,-170 214.5,-164 220.5,-164 220.5,-164 355.5,-164 355.5,-164 361.5,-164 367.5,-170 367.5,-176 367.5,-176 367.5,-188 367.5,-188 367.5,-194 361.5,-200 355.5,-200"/>
<text text-anchor="middle" x="288" y="-185.2" font-family="Helvetica,sans-Serif" font-size="11.00">Verify PASSporT signature</text>
<text text-anchor="middle" x="288" y="-173.2" font-family="Helvetica,sans-Serif" font-size="11.00">+ numbers match</text>
</g>
<!-- v1&#45;&gt;v2 -->
<g id="edge5" class="edge">
<title>v1&#45;&gt;v2</title>
<path fill="none" stroke="#33445a" d="M288,-236.81C288,-228.79 288,-219.05 288,-210.07"/>
<polygon fill="#33445a" stroke="#33445a" points="291.5,-210.03 288,-200.03 284.5,-210.03 291.5,-210.03"/>
</g>
<!-- pass -->
<g id="node8" class="node">
<title>pass</title>
<path fill="#d3f9d8" stroke="#33445a" d="M218,-117C218,-117 12,-117 12,-117 6,-117 0,-111 0,-105 0,-105 0,-93 0,-93 0,-87 6,-81 12,-81 12,-81 218,-81 218,-81 224,-81 230,-87 230,-93 230,-93 230,-105 230,-105 230,-111 224,-117 218,-117"/>
<text text-anchor="middle" x="115" y="-102.2" font-family="Helvetica,sans-Serif" font-size="11.00">PASS → verstat = TN&#45;Validation&#45;Passed</text>
<text text-anchor="middle" x="115" y="-90.2" font-family="Helvetica,sans-Serif" font-size="11.00">deliver; surface attestation to callee</text>
</g>
<!-- v2&#45;&gt;pass -->
<g id="edge7" class="edge">
<title>v2&#45;&gt;pass</title>
<path fill="none" stroke="#2b8a3e" d="M251.31,-163.82C224.85,-151.43 188.94,-134.62 160.63,-121.36"/>
<polygon fill="#2b8a3e" stroke="#2b8a3e" points="161.88,-118.08 151.34,-117.01 158.91,-124.42 161.88,-118.08"/>
<text text-anchor="middle" x="224.5" y="-138" font-family="Helvetica,sans-Serif" font-size="10.00">valid</text>
</g>
<!-- fail -->
<g id="node9" class="node">
<title>fail</title>
<path fill="#ffc9c9" stroke="#33445a" d="M542,-117C542,-117 260,-117 260,-117 254,-117 248,-111 248,-105 248,-105 248,-93 248,-93 248,-87 254,-81 260,-81 260,-81 542,-81 542,-81 548,-81 554,-87 554,-93 554,-93 554,-105 554,-105 554,-111 548,-117 542,-117"/>
<text text-anchor="middle" x="401" y="-102.2" font-family="Helvetica,sans-Serif" font-size="11.00">FAIL → missing/bad Identity, cert or signature invalid</text>
<text text-anchor="middle" x="401" y="-90.2" font-family="Helvetica,sans-Serif" font-size="11.00">verstat failed → flag / label as likely spoof</text>
</g>
<!-- v2&#45;&gt;fail -->
<g id="edge8" class="edge">
<title>v2&#45;&gt;fail</title>
<path fill="none" stroke="#e03131" d="M311.96,-163.82C328.44,-152.01 350.53,-136.18 368.58,-123.24"/>
<polygon fill="#e03131" stroke="#e03131" points="370.98,-125.82 377.07,-117.15 366.9,-120.13 370.98,-125.82"/>
<text text-anchor="middle" x="368" y="-138" font-family="Helvetica,sans-Serif" font-size="10.00">invalid</text>
</g>
<!-- note -->
<g id="node10" class="node">
<title>note</title>
<polygon fill="#fff3bf" stroke="#b8860b" points="467.5,-44 40.5,-44 40.5,0 473.5,0 473.5,-38 467.5,-44"/>
<polyline fill="none" stroke="#b8860b" points="467.5,-44 467.5,-38 "/>
<polyline fill="none" stroke="#b8860b" points="473.5,-38 467.5,-38 "/>
<text text-anchor="middle" x="257" y="-31.2" font-family="Helvetica,sans-Serif" font-size="11.00">Attestation A = subscriber authenticated AND authorised for the number;</text>
<text text-anchor="middle" x="257" y="-19.2" font-family="Helvetica,sans-Serif" font-size="11.00">B = known customer, unverified number; C = pass&#45;through. Strip untrusted</text>
<text text-anchor="middle" x="257" y="-7.2" font-family="Helvetica,sans-Serif" font-size="11.00">inbound Identity at the border; verify&#45;then&#45;reattest at transit (T7).</text>
</g>
<!-- pass&#45;&gt;note -->
<g id="edge9" class="edge">
<title>pass&#45;&gt;note</title>
<path fill="none" stroke="#b8860b" stroke-dasharray="5,2" d="M147.22,-80.98C167.92,-70.05 194.97,-55.76 217.04,-44.11"/>
</g>
<!-- fail&#45;&gt;note -->
<g id="edge10" class="edge">
<title>fail&#45;&gt;note</title>
<path fill="none" stroke="#b8860b" stroke-dasharray="5,2" d="M368.32,-80.98C347.33,-70.05 319.9,-55.76 297.52,-44.11"/>
</g>
</g>
</svg>
