<?xml version="1.0" encoding="UTF-8" standalone="no"?>
<!DOCTYPE svg PUBLIC "-//W3C//DTD SVG 1.1//EN"
 "http://www.w3.org/Graphics/SVG/1.1/DTD/svg11.dtd">
<!-- Generated by graphviz version 2.42.4 (0)
 -->
<!-- Title: sip_registration_auth Pages: 1 -->
<svg width="689pt" height="432pt"
 viewBox="0.00 0.00 689.00 432.00" xmlns="http://www.w3.org/2000/svg" xmlns:xlink="http://www.w3.org/1999/xlink">
<g id="graph0" class="graph" transform="scale(1 1) rotate(0) translate(4 428)">
<title>sip_registration_auth</title>
<polygon fill="white" stroke="transparent" points="-4,4 -4,-428 685,-428 685,4 -4,4"/>
<text text-anchor="middle" x="340.5" y="-410.4" font-family="Helvetica,sans-Serif" font-size="12.00">SIP registration with digest auth, and an unauthorised call rejected</text>
<g id="clust1" class="cluster">
<title>cluster_reg</title>
<path fill="none" stroke="#9fb3c8" d="M20,-73C20,-73 325,-73 325,-73 331,-73 337,-79 337,-85 337,-85 337,-383 337,-383 337,-389 331,-395 325,-395 325,-395 20,-395 20,-395 14,-395 8,-389 8,-383 8,-383 8,-85 8,-85 8,-79 14,-73 20,-73"/>
<text text-anchor="middle" x="172.5" y="-381.4" font-family="Helvetica,sans-Serif" font-size="12.00">1 · Registration binds AoR → Contact (authenticated)</text>
</g>
<g id="clust2" class="cluster">
<title>cluster_call</title>
<path fill="none" stroke="#f0a9a9" d="M357,-73C357,-73 661,-73 661,-73 667,-73 673,-79 673,-85 673,-85 673,-383 673,-383 673,-389 667,-395 661,-395 661,-395 357,-395 357,-395 351,-395 345,-389 345,-383 345,-383 345,-85 345,-85 345,-79 351,-73 357,-73"/>
<text text-anchor="middle" x="509" y="-381.4" font-family="Helvetica,sans-Serif" font-size="12.00">2 · Unauthorised INVITE is challenged, then rejected</text>
</g>
<!-- r0 -->
<g id="node1" class="node">
<title>r0</title>
<path fill="#dbeafe" stroke="#33445a" d="M257,-366C257,-366 171,-366 171,-366 165,-366 159,-360 159,-354 159,-354 159,-342 159,-342 159,-336 165,-330 171,-330 171,-330 257,-330 257,-330 263,-330 269,-336 269,-342 269,-342 269,-354 269,-354 269,-360 263,-366 257,-366"/>
<text text-anchor="middle" x="214" y="-351.2" font-family="Helvetica,sans-Serif" font-size="11.00">UAC → REGISTER</text>
<text text-anchor="middle" x="214" y="-339.2" font-family="Helvetica,sans-Serif" font-size="11.00">(no credentials)</text>
</g>
<!-- r1 -->
<g id="node2" class="node">
<title>r1</title>
<path fill="#ffe8cc" stroke="#33445a" d="M317.5,-283C317.5,-283 110.5,-283 110.5,-283 104.5,-283 98.5,-277 98.5,-271 98.5,-271 98.5,-259 98.5,-259 98.5,-253 104.5,-247 110.5,-247 110.5,-247 317.5,-247 317.5,-247 323.5,-247 329.5,-253 329.5,-259 329.5,-259 329.5,-271 329.5,-271 329.5,-277 323.5,-283 317.5,-283"/>
<text text-anchor="middle" x="214" y="-268.2" font-family="Helvetica,sans-Serif" font-size="11.00">Registrar → 401 Unauthorized</text>
<text text-anchor="middle" x="214" y="-256.2" font-family="Helvetica,sans-Serif" font-size="11.00">WWW&#45;Authenticate: realm, nonce, qop</text>
</g>
<!-- r0&#45;&gt;r1 -->
<g id="edge1" class="edge">
<title>r0&#45;&gt;r1</title>
<path fill="none" stroke="#33445a" d="M214,-329.82C214,-319.19 214,-305.31 214,-293.2"/>
<polygon fill="#33445a" stroke="#33445a" points="217.5,-293.15 214,-283.15 210.5,-293.15 217.5,-293.15"/>
<text text-anchor="middle" x="238" y="-304" font-family="Helvetica,sans-Serif" font-size="10.00">challenge</text>
</g>
<!-- r2 -->
<g id="node3" class="node">
<title>r2</title>
<path fill="#dbeafe" stroke="#33445a" d="M301.5,-200C301.5,-200 140.5,-200 140.5,-200 134.5,-200 128.5,-194 128.5,-188 128.5,-188 128.5,-176 128.5,-176 128.5,-170 134.5,-164 140.5,-164 140.5,-164 301.5,-164 301.5,-164 307.5,-164 313.5,-170 313.5,-176 313.5,-176 313.5,-188 313.5,-188 313.5,-194 307.5,-200 301.5,-200"/>
<text text-anchor="middle" x="221" y="-185.2" font-family="Helvetica,sans-Serif" font-size="11.00">UAC → REGISTER</text>
<text text-anchor="middle" x="221" y="-173.2" font-family="Helvetica,sans-Serif" font-size="11.00">Authorization: response=H(...)</text>
</g>
<!-- r1&#45;&gt;r2 -->
<g id="edge2" class="edge">
<title>r1&#45;&gt;r2</title>
<path fill="none" stroke="#33445a" d="M215.48,-246.82C216.4,-236.19 217.6,-222.31 218.65,-210.2"/>
<polygon fill="#33445a" stroke="#33445a" points="222.14,-210.42 219.52,-200.15 215.17,-209.81 222.14,-210.42"/>
<text text-anchor="middle" x="252.5" y="-221" font-family="Helvetica,sans-Serif" font-size="10.00">retry w/ digest</text>
</g>
<!-- r3 -->
<g id="node4" class="node">
<title>r3</title>
<path fill="#d3f9d8" stroke="#33445a" d="M316,-117C316,-117 136,-117 136,-117 130,-117 124,-111 124,-105 124,-105 124,-93 124,-93 124,-87 130,-81 136,-81 136,-81 316,-81 316,-81 322,-81 328,-87 328,-93 328,-93 328,-105 328,-105 328,-111 322,-117 316,-117"/>
<text text-anchor="middle" x="226" y="-102.2" font-family="Helvetica,sans-Serif" font-size="11.00">Registrar → 200 OK</text>
<text text-anchor="middle" x="226" y="-90.2" font-family="Helvetica,sans-Serif" font-size="11.00">AoR → Contact bound, Expires set</text>
</g>
<!-- r2&#45;&gt;r3 -->
<g id="edge3" class="edge">
<title>r2&#45;&gt;r3</title>
<path fill="none" stroke="#33445a" d="M222.06,-163.82C222.72,-153.19 223.57,-139.31 224.32,-127.2"/>
<polygon fill="#33445a" stroke="#33445a" points="227.82,-127.35 224.94,-117.15 220.83,-126.92 227.82,-127.35"/>
<text text-anchor="middle" x="241.5" y="-138" font-family="Helvetica,sans-Serif" font-size="10.00">verified</text>
</g>
<!-- note -->
<g id="node9" class="node">
<title>note</title>
<polygon fill="#fff3bf" stroke="#b8860b" points="542.5,-44 135.5,-44 135.5,0 548.5,0 548.5,-38 542.5,-44"/>
<polyline fill="none" stroke="#b8860b" points="542.5,-44 542.5,-38 "/>
<polyline fill="none" stroke="#b8860b" points="548.5,-38 542.5,-38 "/>
<text text-anchor="middle" x="342" y="-31.2" font-family="Helvetica,sans-Serif" font-size="11.00">Challenge REGISTER AND INVITE. Digest proves the subscriber</text>
<text text-anchor="middle" x="342" y="-19.2" font-family="Helvetica,sans-Serif" font-size="11.00">but not confidentiality — pair with TLS/SIPS. Uniform 401/403/404</text>
<text text-anchor="middle" x="342" y="-7.2" font-family="Helvetica,sans-Serif" font-size="11.00">responses + rate limiting defeat enumeration (T2) and brute force (T3).</text>
</g>
<!-- r3&#45;&gt;note -->
<g id="edge7" class="edge">
<title>r3&#45;&gt;note</title>
<path fill="none" stroke="#b8860b" stroke-dasharray="5,2" d="M252.32,-80.98C269.17,-70.09 291.15,-55.87 309.14,-44.24"/>
</g>
<!-- c0 -->
<g id="node5" class="node">
<title>c0</title>
<path fill="#dbeafe" stroke="#33445a" d="M545.5,-366C545.5,-366 418.5,-366 418.5,-366 412.5,-366 406.5,-360 406.5,-354 406.5,-354 406.5,-342 406.5,-342 406.5,-336 412.5,-330 418.5,-330 418.5,-330 545.5,-330 545.5,-330 551.5,-330 557.5,-336 557.5,-342 557.5,-342 557.5,-354 557.5,-354 557.5,-360 551.5,-366 545.5,-366"/>
<text text-anchor="middle" x="482" y="-351.2" font-family="Helvetica,sans-Serif" font-size="11.00">UAC → INVITE</text>
<text text-anchor="middle" x="482" y="-339.2" font-family="Helvetica,sans-Serif" font-size="11.00">(no / invalid credentials)</text>
</g>
<!-- c1 -->
<g id="node6" class="node">
<title>c1</title>
<path fill="#ffe8cc" stroke="#33445a" d="M598.5,-283C598.5,-283 365.5,-283 365.5,-283 359.5,-283 353.5,-277 353.5,-271 353.5,-271 353.5,-259 353.5,-259 353.5,-253 359.5,-247 365.5,-247 365.5,-247 598.5,-247 598.5,-247 604.5,-247 610.5,-253 610.5,-259 610.5,-259 610.5,-271 610.5,-271 610.5,-277 604.5,-283 598.5,-283"/>
<text text-anchor="middle" x="482" y="-268.2" font-family="Helvetica,sans-Serif" font-size="11.00">Proxy → 407 Proxy Authentication Required</text>
<text text-anchor="middle" x="482" y="-256.2" font-family="Helvetica,sans-Serif" font-size="11.00">Proxy&#45;Authenticate: realm, nonce</text>
</g>
<!-- c0&#45;&gt;c1 -->
<g id="edge4" class="edge">
<title>c0&#45;&gt;c1</title>
<path fill="none" stroke="#33445a" d="M482,-329.82C482,-319.19 482,-305.31 482,-293.2"/>
<polygon fill="#33445a" stroke="#33445a" points="485.5,-293.15 482,-283.15 478.5,-293.15 485.5,-293.15"/>
<text text-anchor="middle" x="539" y="-304" font-family="Helvetica,sans-Serif" font-size="10.00">challenge every INVITE</text>
</g>
<!-- c2 -->
<g id="node7" class="node">
<title>c2</title>
<path fill="#dbeafe" stroke="#33445a" d="M550,-200C550,-200 404,-200 404,-200 398,-200 392,-194 392,-188 392,-188 392,-176 392,-176 392,-170 398,-164 404,-164 404,-164 550,-164 550,-164 556,-164 562,-170 562,-176 562,-176 562,-188 562,-188 562,-194 556,-200 550,-200"/>
<text text-anchor="middle" x="477" y="-185.2" font-family="Helvetica,sans-Serif" font-size="11.00">UAC → INVITE</text>
<text text-anchor="middle" x="477" y="-173.2" font-family="Helvetica,sans-Serif" font-size="11.00">(still no valid Authorization)</text>
</g>
<!-- c1&#45;&gt;c2 -->
<g id="edge5" class="edge">
<title>c1&#45;&gt;c2</title>
<path fill="none" stroke="#33445a" d="M480.94,-246.82C480.28,-236.19 479.43,-222.31 478.68,-210.2"/>
<polygon fill="#33445a" stroke="#33445a" points="482.17,-209.92 478.06,-200.15 475.18,-210.35 482.17,-209.92"/>
<text text-anchor="middle" x="491" y="-221" font-family="Helvetica,sans-Serif" font-size="10.00">retry</text>
</g>
<!-- c3 -->
<g id="node8" class="node">
<title>c3</title>
<path fill="#ffc9c9" stroke="#33445a" d="M538,-117C538,-117 374,-117 374,-117 368,-117 362,-111 362,-105 362,-105 362,-93 362,-93 362,-87 368,-81 374,-81 374,-81 538,-81 538,-81 544,-81 550,-87 550,-93 550,-93 550,-105 550,-105 550,-111 544,-117 538,-117"/>
<text text-anchor="middle" x="456" y="-102.2" font-family="Helvetica,sans-Serif" font-size="11.00">Proxy → 403 Forbidden</text>
<text text-anchor="middle" x="456" y="-90.2" font-family="Helvetica,sans-Serif" font-size="11.00">call refused — no valid identity</text>
</g>
<!-- c2&#45;&gt;c3 -->
<g id="edge6" class="edge">
<title>c2&#45;&gt;c3</title>
<path fill="none" stroke="#33445a" d="M472.55,-163.82C469.76,-153.08 466.12,-139.03 462.96,-126.84"/>
<polygon fill="#33445a" stroke="#33445a" points="466.34,-125.95 460.45,-117.15 459.57,-127.71 466.34,-125.95"/>
<text text-anchor="middle" x="490" y="-138" font-family="Helvetica,sans-Serif" font-size="10.00">auth fails</text>
</g>
<!-- c3&#45;&gt;note -->
<g id="edge8" class="edge">
<title>c3&#45;&gt;note</title>
<path fill="none" stroke="#b8860b" stroke-dasharray="5,2" d="M430.13,-80.98C413.58,-70.09 391.97,-55.87 374.29,-44.24"/>
</g>
</g>
</svg>
