<?xml version="1.0" encoding="UTF-8" standalone="no"?>
<!DOCTYPE svg PUBLIC "-//W3C//DTD SVG 1.1//EN"
 "http://www.w3.org/Graphics/SVG/1.1/DTD/svg11.dtd">
<!-- Generated by graphviz version 2.42.4 (0)
 -->
<!-- Title: sip_dns_resolution Pages: 1 -->
<svg width="815pt" height="616pt"
 viewBox="0.00 0.00 815.00 616.00" xmlns="http://www.w3.org/2000/svg" xmlns:xlink="http://www.w3.org/1999/xlink">
<g id="graph0" class="graph" transform="scale(1 1) rotate(0) translate(4 612)">
<title>sip_dns_resolution</title>
<polygon fill="white" stroke="transparent" points="-4,4 -4,-612 811,-612 811,4 -4,4"/>
<text text-anchor="middle" x="403.5" y="-594.4" font-family="Helvetica,sans-Serif" font-size="12.00">DNS for SIP — RFC 3263 resolution, SRV failover, and a spoof defeated two ways</text>
<g id="clust1" class="cluster">
<title>cluster_resolve</title>
<path fill="none" stroke="#9fb3c8" d="M33,-360C33,-360 394,-360 394,-360 400,-360 406,-366 406,-372 406,-372 406,-567 406,-567 406,-573 400,-579 394,-579 394,-579 33,-579 33,-579 27,-579 21,-573 21,-567 21,-567 21,-372 21,-372 21,-366 27,-360 33,-360"/>
<text text-anchor="middle" x="213.5" y="-565.4" font-family="Helvetica,sans-Serif" font-size="12.00">1 · Resolution chain (RFC 3263) — done before any SIP is sent</text>
</g>
<g id="clust2" class="cluster">
<title>cluster_failover</title>
<path fill="none" stroke="#9fb3c8" d="M20,-156C20,-156 250,-156 250,-156 256,-156 262,-162 262,-168 262,-168 262,-319 262,-319 262,-325 256,-331 250,-331 250,-331 20,-331 20,-331 14,-331 8,-325 8,-319 8,-319 8,-168 8,-168 8,-162 14,-156 20,-156"/>
<text text-anchor="middle" x="135" y="-317.4" font-family="Helvetica,sans-Serif" font-size="12.00">2 · SRV failover</text>
</g>
<g id="clust3" class="cluster">
<title>cluster_attack</title>
<path fill="none" stroke="#f0a9a9" d="M282,-73C282,-73 787,-73 787,-73 793,-73 799,-79 799,-85 799,-85 799,-217 799,-217 799,-223 793,-229 787,-229 787,-229 282,-229 282,-229 276,-229 270,-223 270,-217 270,-217 270,-85 270,-85 270,-79 276,-73 282,-73"/>
<text text-anchor="middle" x="534.5" y="-215.4" font-family="Helvetica,sans-Serif" font-size="12.00">3 · Spoof / cache poisoning — defeated two independent ways</text>
</g>
<!-- r0 -->
<g id="node1" class="node">
<title>r0</title>
<path fill="#f5e1c0" stroke="#33445a" d="M207,-550C207,-550 63,-550 63,-550 57,-550 51,-544 51,-538 51,-538 51,-526 51,-526 51,-520 57,-514 63,-514 63,-514 207,-514 207,-514 213,-514 219,-520 219,-526 219,-526 219,-538 219,-538 219,-544 213,-550 207,-550"/>
<text text-anchor="middle" x="135" y="-535.2" font-family="Helvetica,sans-Serif" font-size="11.00">NAPTR: service + transport</text>
<text text-anchor="middle" x="135" y="-523.2" font-family="Helvetica,sans-Serif" font-size="11.00">(SIPS+D2T ⇒ TLS)</text>
</g>
<!-- r1 -->
<g id="node2" class="node">
<title>r1</title>
<path fill="#f5e1c0" stroke="#33445a" d="M217,-477C217,-477 53,-477 53,-477 47,-477 41,-471 41,-465 41,-465 41,-453 41,-453 41,-447 47,-441 53,-441 53,-441 217,-441 217,-441 223,-441 229,-447 229,-453 229,-453 229,-465 229,-465 229,-471 223,-477 217,-477"/>
<text text-anchor="middle" x="135" y="-462.2" font-family="Helvetica,sans-Serif" font-size="11.00">SRV: hosts w/ priority + weight</text>
<text text-anchor="middle" x="135" y="-450.2" font-family="Helvetica,sans-Serif" font-size="11.00">_sips._tcp / _sip._udp</text>
</g>
<!-- r0&#45;&gt;r1 -->
<g id="edge1" class="edge">
<title>r0&#45;&gt;r1</title>
<path fill="none" stroke="#33445a" d="M135,-513.81C135,-505.79 135,-496.05 135,-487.07"/>
<polygon fill="#33445a" stroke="#33445a" points="138.5,-487.03 135,-477.03 131.5,-487.03 138.5,-487.03"/>
</g>
<!-- r2 -->
<g id="node3" class="node">
<title>r2</title>
<path fill="#f5e1c0" stroke="#33445a" d="M187.5,-404C187.5,-404 82.5,-404 82.5,-404 76.5,-404 70.5,-398 70.5,-392 70.5,-392 70.5,-380 70.5,-380 70.5,-374 76.5,-368 82.5,-368 82.5,-368 187.5,-368 187.5,-368 193.5,-368 199.5,-374 199.5,-380 199.5,-380 199.5,-392 199.5,-392 199.5,-398 193.5,-404 187.5,-404"/>
<text text-anchor="middle" x="135" y="-383.2" font-family="Helvetica,sans-Serif" font-size="11.00">A / AAAA: addresses</text>
</g>
<!-- r1&#45;&gt;r2 -->
<g id="edge2" class="edge">
<title>r1&#45;&gt;r2</title>
<path fill="none" stroke="#33445a" d="M135,-440.81C135,-432.79 135,-423.05 135,-414.07"/>
<polygon fill="#33445a" stroke="#33445a" points="138.5,-414.03 135,-404.03 131.5,-414.03 138.5,-414.03"/>
</g>
<!-- f0 -->
<g id="node4" class="node">
<title>f0</title>
<path fill="#d3f9d8" stroke="#33445a" d="M242,-302C242,-302 28,-302 28,-302 22,-302 16,-296 16,-290 16,-290 16,-278 16,-278 16,-272 22,-266 28,-266 28,-266 242,-266 242,-266 248,-266 254,-272 254,-278 254,-278 254,-290 254,-290 254,-296 248,-302 242,-302"/>
<text text-anchor="middle" x="135" y="-281.2" font-family="Helvetica,sans-Serif" font-size="11.00">Connect primary SRV (lowest priority #)</text>
</g>
<!-- r2&#45;&gt;f0 -->
<g id="edge4" class="edge">
<title>r2&#45;&gt;f0</title>
<path fill="none" stroke="#33445a" d="M135,-367.58C135,-352.38 135,-330.07 135,-312.46"/>
<polygon fill="#33445a" stroke="#33445a" points="138.5,-312.22 135,-302.22 131.5,-312.22 138.5,-312.22"/>
<text text-anchor="middle" x="161.5" y="-342" font-family="Helvetica,sans-Serif" font-size="10.00">pick target</text>
</g>
<!-- f1 -->
<g id="node5" class="node">
<title>f1</title>
<path fill="#ffe8cc" stroke="#33445a" d="M239.5,-200C239.5,-200 30.5,-200 30.5,-200 24.5,-200 18.5,-194 18.5,-188 18.5,-188 18.5,-176 18.5,-176 18.5,-170 24.5,-164 30.5,-164 30.5,-164 239.5,-164 239.5,-164 245.5,-164 251.5,-170 251.5,-176 251.5,-176 251.5,-188 251.5,-188 251.5,-194 245.5,-200 239.5,-200"/>
<text text-anchor="middle" x="135" y="-185.2" font-family="Helvetica,sans-Serif" font-size="11.00">Primary down?</text>
<text text-anchor="middle" x="135" y="-173.2" font-family="Helvetica,sans-Serif" font-size="11.00">→ next SRV target (TTL governs speed)</text>
</g>
<!-- f0&#45;&gt;f1 -->
<g id="edge3" class="edge">
<title>f0&#45;&gt;f1</title>
<path fill="none" stroke="#33445a" d="M135,-265.58C135,-250.38 135,-228.07 135,-210.46"/>
<polygon fill="#33445a" stroke="#33445a" points="138.5,-210.22 135,-200.22 131.5,-210.22 138.5,-210.22"/>
<text text-anchor="middle" x="174.5" y="-240" font-family="Helvetica,sans-Serif" font-size="10.00">health / timeout</text>
</g>
<!-- a0 -->
<g id="node6" class="node">
<title>a0</title>
<path fill="#ffc9c9" stroke="#33445a" d="M496,-200C496,-200 304,-200 304,-200 298,-200 292,-194 292,-188 292,-188 292,-176 292,-176 292,-170 298,-164 304,-164 304,-164 496,-164 496,-164 502,-164 508,-170 508,-176 508,-176 508,-188 508,-188 508,-194 502,-200 496,-200"/>
<text text-anchor="middle" x="400" y="-179.2" font-family="Helvetica,sans-Serif" font-size="11.00">Forged answer: SRV → attacker host</text>
</g>
<!-- f0&#45;&gt;a0 -->
<g id="edge7" class="edge">
<title>f0&#45;&gt;a0</title>
<path fill="none" stroke="#e03131" stroke-dasharray="5,2" d="M180.25,-265.92C225.99,-248.66 296.69,-221.99 345.48,-203.57"/>
<polygon fill="#e03131" stroke="#e03131" points="346.81,-206.81 354.93,-200.01 344.34,-200.26 346.81,-206.81"/>
<text text-anchor="middle" x="303.5" y="-240" font-family="Helvetica,sans-Serif" font-size="10.00">attacker poisons DNS</text>
</g>
<!-- d1 -->
<g id="node7" class="node">
<title>d1</title>
<path fill="#d3f9d8" stroke="#33445a" d="M509.5,-117C509.5,-117 290.5,-117 290.5,-117 284.5,-117 278.5,-111 278.5,-105 278.5,-105 278.5,-93 278.5,-93 278.5,-87 284.5,-81 290.5,-81 290.5,-81 509.5,-81 509.5,-81 515.5,-81 521.5,-87 521.5,-93 521.5,-93 521.5,-105 521.5,-105 521.5,-111 515.5,-117 509.5,-117"/>
<text text-anchor="middle" x="400" y="-102.2" font-family="Helvetica,sans-Serif" font-size="11.00">Defense 1 — DNSSEC</text>
<text text-anchor="middle" x="400" y="-90.2" font-family="Helvetica,sans-Serif" font-size="11.00">validating resolver rejects forged answer</text>
</g>
<!-- a0&#45;&gt;d1 -->
<g id="edge5" class="edge">
<title>a0&#45;&gt;d1</title>
<path fill="none" stroke="#33445a" d="M400,-163.82C400,-153.19 400,-139.31 400,-127.2"/>
<polygon fill="#33445a" stroke="#33445a" points="403.5,-127.15 400,-117.15 396.5,-127.15 403.5,-127.15"/>
<text text-anchor="middle" x="429.5" y="-138" font-family="Helvetica,sans-Serif" font-size="10.00">signed zone</text>
</g>
<!-- d2 -->
<g id="node8" class="node">
<title>d2</title>
<path fill="#d3f9d8" stroke="#33445a" d="M778.5,-117C778.5,-117 551.5,-117 551.5,-117 545.5,-117 539.5,-111 539.5,-105 539.5,-105 539.5,-93 539.5,-93 539.5,-87 545.5,-81 551.5,-81 551.5,-81 778.5,-81 778.5,-81 784.5,-81 790.5,-87 790.5,-93 790.5,-93 790.5,-105 790.5,-105 790.5,-111 784.5,-117 778.5,-117"/>
<text text-anchor="middle" x="665" y="-102.2" font-family="Helvetica,sans-Serif" font-size="11.00">Defense 2 — SIPS/TLS cert</text>
<text text-anchor="middle" x="665" y="-90.2" font-family="Helvetica,sans-Serif" font-size="11.00">attacker lacks valid cert → handshake fails</text>
</g>
<!-- a0&#45;&gt;d2 -->
<g id="edge6" class="edge">
<title>a0&#45;&gt;d2</title>
<path fill="none" stroke="#33445a" d="M455.88,-163.92C497.8,-151.1 555.33,-133.52 599.44,-120.04"/>
<polygon fill="#33445a" stroke="#33445a" points="600.66,-123.33 609.2,-117.06 598.61,-116.63 600.66,-123.33"/>
<text text-anchor="middle" x="601.5" y="-138" font-family="Helvetica,sans-Serif" font-size="10.00">even without DNSSEC</text>
</g>
<!-- note -->
<g id="node9" class="node">
<title>note</title>
<polygon fill="#fff3bf" stroke="#b8860b" points="745,-44 313,-44 313,0 751,0 751,-38 745,-44"/>
<polyline fill="none" stroke="#b8860b" points="745,-44 745,-38 "/>
<polyline fill="none" stroke="#b8860b" points="751,-38 745,-38 "/>
<text text-anchor="middle" x="532" y="-31.2" font-family="Helvetica,sans-Serif" font-size="11.00">What you publish is policy (publish only SIPS to force TLS).</text>
<text text-anchor="middle" x="532" y="-19.2" font-family="Helvetica,sans-Serif" font-size="11.00">DNSSEC protects the answer&#39;s integrity; TLS cert verification protects</text>
<text text-anchor="middle" x="532" y="-7.2" font-family="Helvetica,sans-Serif" font-size="11.00">the destination&#39;s identity — two layers, TLS still saves you without DNSSEC.</text>
</g>
<!-- d1&#45;&gt;note -->
<g id="edge8" class="edge">
<title>d1&#45;&gt;note</title>
<path fill="none" stroke="#b8860b" stroke-dasharray="5,2" d="M429.95,-80.98C449.12,-70.09 474.14,-55.87 494.61,-44.24"/>
</g>
<!-- d2&#45;&gt;note -->
<g id="edge9" class="edge">
<title>d2&#45;&gt;note</title>
<path fill="none" stroke="#b8860b" stroke-dasharray="5,2" d="M634.82,-80.98C615.51,-70.09 590.3,-55.87 569.67,-44.24"/>
</g>
</g>
</svg>
