<?xml version="1.0" encoding="UTF-8" standalone="no"?>
<!DOCTYPE svg PUBLIC "-//W3C//DTD SVG 1.1//EN"
 "http://www.w3.org/Graphics/SVG/1.1/DTD/svg11.dtd">
<!-- Generated by graphviz version 2.42.4 (0)
 -->
<!-- Title: sip_media_crypto Pages: 1 -->
<svg width="718pt" height="441pt"
 viewBox="0.00 0.00 718.00 441.00" xmlns="http://www.w3.org/2000/svg" xmlns:xlink="http://www.w3.org/1999/xlink">
<g id="graph0" class="graph" transform="scale(1 1) rotate(0) translate(4 437)">
<title>sip_media_crypto</title>
<polygon fill="white" stroke="transparent" points="-4,4 -4,-437 714,-437 714,4 -4,4"/>
<text text-anchor="middle" x="355" y="-419.4" font-family="Helvetica,sans-Serif" font-size="12.00">Securing both planes — TLS/SIPS for signalling, SRTP (SDES / DTLS / ZRTP) for media</text>
<g id="clust1" class="cluster">
<title>cluster_sig</title>
<path fill="none" stroke="#9fb3c8" d="M241,-258C241,-258 475,-258 475,-258 481,-258 487,-264 487,-270 487,-270 487,-392 487,-392 487,-398 481,-404 475,-404 475,-404 241,-404 241,-404 235,-404 229,-398 229,-392 229,-392 229,-270 229,-270 229,-264 235,-258 241,-258"/>
<text text-anchor="middle" x="358" y="-390.4" font-family="Helvetica,sans-Serif" font-size="12.00">Signalling plane — TLS/SIPS (port 5061)</text>
</g>
<g id="clust2" class="cluster">
<title>cluster_media</title>
<path fill="none" stroke="#9fb3c8" d="M20,-156C20,-156 690,-156 690,-156 696,-156 702,-162 702,-168 702,-168 702,-217 702,-217 702,-223 696,-229 690,-229 690,-229 20,-229 20,-229 14,-229 8,-223 8,-217 8,-217 8,-168 8,-168 8,-162 14,-156 20,-156"/>
<text text-anchor="middle" x="355" y="-215.4" font-family="Helvetica,sans-Serif" font-size="12.00">Media plane — pick a key&#45;exchange method</text>
</g>
<!-- s0 -->
<g id="node1" class="node">
<title>s0</title>
<path fill="#ffe8cc" stroke="#33445a" d="M467,-375C467,-375 249,-375 249,-375 243,-375 237,-369 237,-363 237,-363 237,-351 237,-351 237,-345 243,-339 249,-339 249,-339 467,-339 467,-339 473,-339 479,-345 479,-351 479,-351 479,-363 479,-363 479,-369 473,-375 467,-375"/>
<text text-anchor="middle" x="358" y="-360.2" font-family="Helvetica,sans-Serif" font-size="11.00">TLS handshake</text>
<text text-anchor="middle" x="358" y="-348.2" font-family="Helvetica,sans-Serif" font-size="11.00">ClientHello → ServerHello + cert → verify</text>
</g>
<!-- s1 -->
<g id="node2" class="node">
<title>s1</title>
<path fill="#d3f9d8" stroke="#33445a" d="M456.5,-302C456.5,-302 259.5,-302 259.5,-302 253.5,-302 247.5,-296 247.5,-290 247.5,-290 247.5,-278 247.5,-278 247.5,-272 253.5,-266 259.5,-266 259.5,-266 456.5,-266 456.5,-266 462.5,-266 468.5,-272 468.5,-278 468.5,-278 468.5,-290 468.5,-290 468.5,-296 462.5,-302 456.5,-302"/>
<text text-anchor="middle" x="358" y="-287.2" font-family="Helvetica,sans-Serif" font-size="11.00">Encrypted SIP</text>
<text text-anchor="middle" x="358" y="-275.2" font-family="Helvetica,sans-Serif" font-size="11.00">(SDES key, if used, is now protected)</text>
</g>
<!-- s0&#45;&gt;s1 -->
<g id="edge1" class="edge">
<title>s0&#45;&gt;s1</title>
<path fill="none" stroke="#33445a" d="M358,-338.81C358,-330.79 358,-321.05 358,-312.07"/>
<polygon fill="#33445a" stroke="#33445a" points="361.5,-312.03 358,-302.03 354.5,-312.03 361.5,-312.03"/>
</g>
<!-- m0 -->
<g id="node3" class="node">
<title>m0</title>
<path fill="#e5dbff" stroke="#33445a" d="M208.5,-200C208.5,-200 27.5,-200 27.5,-200 21.5,-200 15.5,-194 15.5,-188 15.5,-188 15.5,-176 15.5,-176 15.5,-170 21.5,-164 27.5,-164 27.5,-164 208.5,-164 208.5,-164 214.5,-164 220.5,-170 220.5,-176 220.5,-176 220.5,-188 220.5,-188 220.5,-194 214.5,-200 208.5,-200"/>
<text text-anchor="middle" x="118" y="-185.2" font-family="Helvetica,sans-Serif" font-size="11.00">SDES (RFC 4568)</text>
<text text-anchor="middle" x="118" y="-173.2" font-family="Helvetica,sans-Serif" font-size="11.00">key in SDP a=crypto — needs TLS</text>
</g>
<!-- s1&#45;&gt;m0 -->
<g id="edge2" class="edge">
<title>s1&#45;&gt;m0</title>
<path fill="none" stroke="#2b8a3e" d="M303.3,-265.97C287.26,-260.61 269.8,-254.41 254,-248 221.79,-234.94 186.38,-217.93 159.78,-204.59"/>
<polygon fill="#2b8a3e" stroke="#2b8a3e" points="161.26,-201.41 150.75,-200.03 158.1,-207.66 161.26,-201.41"/>
<text text-anchor="middle" x="304" y="-240" font-family="Helvetica,sans-Serif" font-size="10.00">SDES ⇒ requires TLS</text>
</g>
<!-- m1 -->
<g id="node4" class="node">
<title>m1</title>
<path fill="#e5dbff" stroke="#33445a" d="M466,-200C466,-200 250,-200 250,-200 244,-200 238,-194 238,-188 238,-188 238,-176 238,-176 238,-170 244,-164 250,-164 250,-164 466,-164 466,-164 472,-164 478,-170 478,-176 478,-176 478,-188 478,-188 478,-194 472,-200 466,-200"/>
<text text-anchor="middle" x="358" y="-185.2" font-family="Helvetica,sans-Serif" font-size="11.00">DTLS&#45;SRTP (RFC 5763/64)</text>
<text text-anchor="middle" x="358" y="-173.2" font-family="Helvetica,sans-Serif" font-size="11.00">key in media handshake; SDP fingerprint</text>
</g>
<!-- s1&#45;&gt;m1 -->
<!-- m2 -->
<g id="node5" class="node">
<title>m2</title>
<path fill="#e5dbff" stroke="#33445a" d="M681.5,-200C681.5,-200 508.5,-200 508.5,-200 502.5,-200 496.5,-194 496.5,-188 496.5,-188 496.5,-176 496.5,-176 496.5,-170 502.5,-164 508.5,-164 508.5,-164 681.5,-164 681.5,-164 687.5,-164 693.5,-170 693.5,-176 693.5,-176 693.5,-188 693.5,-188 693.5,-194 687.5,-200 681.5,-200"/>
<text text-anchor="middle" x="595" y="-185.2" font-family="Helvetica,sans-Serif" font-size="11.00">ZRTP (RFC 6189)</text>
<text text-anchor="middle" x="595" y="-173.2" font-family="Helvetica,sans-Serif" font-size="11.00">in&#45;media DH + human SAS (E2E)</text>
</g>
<!-- s1&#45;&gt;m2 -->
<!-- plain -->
<g id="node6" class="node">
<title>plain</title>
<path fill="#ffc9c9" stroke="#33445a" d="M216.5,-117C216.5,-117 27.5,-117 27.5,-117 21.5,-117 15.5,-111 15.5,-105 15.5,-105 15.5,-93 15.5,-93 15.5,-87 21.5,-81 27.5,-81 27.5,-81 216.5,-81 216.5,-81 222.5,-81 228.5,-87 228.5,-93 228.5,-93 228.5,-105 228.5,-105 228.5,-111 222.5,-117 216.5,-117"/>
<text text-anchor="middle" x="122" y="-102.2" font-family="Helvetica,sans-Serif" font-size="11.00">Plaintext RTP</text>
<text text-anchor="middle" x="122" y="-90.2" font-family="Helvetica,sans-Serif" font-size="11.00">→ recordable / eavesdroppable (T5)</text>
</g>
<!-- m0&#45;&gt;plain -->
<g id="edge8" class="edge">
<title>m0&#45;&gt;plain</title>
<path fill="none" stroke="#e03131" stroke-dasharray="5,2" d="M118.85,-163.82C119.37,-153.19 120.06,-139.31 120.66,-127.2"/>
<polygon fill="#e03131" stroke="#e03131" points="124.16,-127.31 121.15,-117.15 117.16,-126.97 124.16,-127.31"/>
<text text-anchor="middle" x="163.5" y="-138" font-family="Helvetica,sans-Serif" font-size="10.00">crypto stripped →</text>
</g>
<!-- srtp -->
<g id="node7" class="node">
<title>srtp</title>
<path fill="#d3f9d8" stroke="#33445a" d="M454.5,-117C454.5,-117 259.5,-117 259.5,-117 253.5,-117 247.5,-111 247.5,-105 247.5,-105 247.5,-93 247.5,-93 247.5,-87 253.5,-81 259.5,-81 259.5,-81 454.5,-81 454.5,-81 460.5,-81 466.5,-87 466.5,-93 466.5,-93 466.5,-105 466.5,-105 466.5,-111 460.5,-117 454.5,-117"/>
<text text-anchor="middle" x="357" y="-102.2" font-family="Helvetica,sans-Serif" font-size="11.00">SRTP — confidential + authenticated</text>
<text text-anchor="middle" x="357" y="-90.2" font-family="Helvetica,sans-Serif" font-size="11.00">(AES&#45;CM/GCM)</text>
</g>
<!-- m0&#45;&gt;srtp -->
<g id="edge5" class="edge">
<title>m0&#45;&gt;srtp</title>
<path fill="none" stroke="#2b8a3e" d="M168.39,-163.92C205.97,-151.19 257.44,-133.74 297.12,-120.3"/>
<polygon fill="#2b8a3e" stroke="#2b8a3e" points="298.33,-123.58 306.68,-117.06 296.08,-116.95 298.33,-123.58"/>
<text text-anchor="middle" x="266" y="-138" font-family="Helvetica,sans-Serif" font-size="10.00">keyed</text>
</g>
<!-- m1&#45;&gt;srtp -->
<g id="edge6" class="edge">
<title>m1&#45;&gt;srtp</title>
<path fill="none" stroke="#2b8a3e" d="M357.79,-163.82C357.66,-153.19 357.49,-139.31 357.34,-127.2"/>
<polygon fill="#2b8a3e" stroke="#2b8a3e" points="360.84,-127.11 357.21,-117.15 353.84,-127.2 360.84,-127.11"/>
</g>
<!-- m2&#45;&gt;srtp -->
<g id="edge7" class="edge">
<title>m2&#45;&gt;srtp</title>
<path fill="none" stroke="#2b8a3e" d="M544.82,-163.92C507.48,-151.21 456.36,-133.82 416.88,-120.38"/>
<polygon fill="#2b8a3e" stroke="#2b8a3e" points="417.71,-116.96 407.11,-117.06 415.45,-123.59 417.71,-116.96"/>
</g>
<!-- note -->
<g id="node8" class="node">
<title>note</title>
<polygon fill="#fff3bf" stroke="#b8860b" points="418.5,-44 51.5,-44 51.5,0 424.5,0 424.5,-38 418.5,-44"/>
<polyline fill="none" stroke="#b8860b" points="418.5,-44 418.5,-38 "/>
<polyline fill="none" stroke="#b8860b" points="424.5,-38 418.5,-38 "/>
<text text-anchor="middle" x="238" y="-31.2" font-family="Helvetica,sans-Serif" font-size="11.00">Encrypt BOTH planes — TLS alone leaves media readable.</text>
<text text-anchor="middle" x="238" y="-19.2" font-family="Helvetica,sans-Serif" font-size="11.00">Downgrade works only if you allow cleartext → SRTP&#45;only policy,</text>
<text text-anchor="middle" x="238" y="-7.2" font-family="Helvetica,sans-Serif" font-size="11.00">alarm at the SBC. ZRTP&#39;s SAS defeats a DTLS&#45;fingerprint MITM.</text>
</g>
<!-- plain&#45;&gt;note -->
<g id="edge10" class="edge">
<title>plain&#45;&gt;note</title>
<path fill="none" stroke="#b8860b" stroke-dasharray="5,2" d="M148.32,-80.98C165.17,-70.09 187.15,-55.87 205.14,-44.24"/>
</g>
<!-- srtp&#45;&gt;note -->
<g id="edge9" class="edge">
<title>srtp&#45;&gt;note</title>
<path fill="none" stroke="#b8860b" stroke-dasharray="5,2" d="M330,-80.98C312.72,-70.09 290.16,-55.87 271.71,-44.24"/>
</g>
</g>
</svg>
