<?xml version="1.0" encoding="UTF-8" standalone="no"?>
<!DOCTYPE svg PUBLIC "-//W3C//DTD SVG 1.1//EN"
 "http://www.w3.org/Graphics/SVG/1.1/DTD/svg11.dtd">
<!-- Generated by graphviz version 2.42.4 (0)
 -->
<!-- Title: sip_forking_cancel Pages: 1 -->
<svg width="538pt" height="611pt"
 viewBox="0.00 0.00 538.00 611.00" xmlns="http://www.w3.org/2000/svg" xmlns:xlink="http://www.w3.org/1999/xlink">
<g id="graph0" class="graph" transform="scale(1 1) rotate(0) translate(4 607)">
<title>sip_forking_cancel</title>
<polygon fill="white" stroke="transparent" points="-4,4 -4,-607 534,-607 534,4 -4,4"/>
<text text-anchor="middle" x="265" y="-589.4" font-family="Helvetica,sans-Serif" font-size="12.00">Parallel forking — one INVITE rings two branches; winner answers, loser is CANCELled</text>
<!-- inv -->
<g id="node1" class="node">
<title>inv</title>
<path fill="#dbeafe" stroke="#33445a" d="M451,-582C451,-582 307,-582 307,-582 301,-582 295,-576 295,-570 295,-570 295,-558 295,-558 295,-552 301,-546 307,-546 307,-546 451,-546 451,-546 457,-546 463,-552 463,-558 463,-558 463,-570 463,-570 463,-576 457,-582 451,-582"/>
<text text-anchor="middle" x="379" y="-567.2" font-family="Helvetica,sans-Serif" font-size="11.00">Caller → INVITE</text>
<text text-anchor="middle" x="379" y="-555.2" font-family="Helvetica,sans-Serif" font-size="11.00">(to an AoR with 2 contacts)</text>
</g>
<!-- fork -->
<g id="node2" class="node">
<title>fork</title>
<path fill="#e7f5ff" stroke="#33445a" stroke-width="2" d="M447.5,-499C447.5,-499 310.5,-499 310.5,-499 304.5,-499 298.5,-493 298.5,-487 298.5,-487 298.5,-475 298.5,-475 298.5,-469 304.5,-463 310.5,-463 310.5,-463 447.5,-463 447.5,-463 453.5,-463 459.5,-469 459.5,-475 459.5,-475 459.5,-487 459.5,-487 459.5,-493 453.5,-499 447.5,-499"/>
<text text-anchor="middle" x="379" y="-484.2" font-family="Helvetica,sans-Serif" font-size="11.00">Proxy forks the INVITE</text>
<text text-anchor="middle" x="379" y="-472.2" font-family="Helvetica,sans-Serif" font-size="11.00">(parallel to both contacts)</text>
</g>
<!-- inv&#45;&gt;fork -->
<g id="edge1" class="edge">
<title>inv&#45;&gt;fork</title>
<path fill="none" stroke="#33445a" d="M379,-545.82C379,-535.19 379,-521.31 379,-509.2"/>
<polygon fill="#33445a" stroke="#33445a" points="382.5,-509.15 379,-499.15 375.5,-509.15 382.5,-509.15"/>
<text text-anchor="middle" x="408" y="-520" font-family="Helvetica,sans-Serif" font-size="10.00">one request</text>
</g>
<!-- a180 -->
<g id="node3" class="node">
<title>a180</title>
<path fill="#e9ecef" stroke="#33445a" d="M383.5,-416C383.5,-416 260.5,-416 260.5,-416 254.5,-416 248.5,-410 248.5,-404 248.5,-404 248.5,-392 248.5,-392 248.5,-386 254.5,-380 260.5,-380 260.5,-380 383.5,-380 383.5,-380 389.5,-380 395.5,-386 395.5,-392 395.5,-392 395.5,-404 395.5,-404 395.5,-410 389.5,-416 383.5,-416"/>
<text text-anchor="middle" x="322" y="-395.2" font-family="Helvetica,sans-Serif" font-size="11.00">Branch A → 180 Ringing</text>
</g>
<!-- fork&#45;&gt;a180 -->
<g id="edge2" class="edge">
<title>fork&#45;&gt;a180</title>
<path fill="none" stroke="#33445a" d="M366.91,-462.82C359.05,-451.65 348.67,-436.9 339.86,-424.38"/>
<polygon fill="#33445a" stroke="#33445a" points="342.69,-422.32 334.07,-416.15 336.96,-426.35 342.69,-422.32"/>
<text text-anchor="middle" x="374.5" y="-437" font-family="Helvetica,sans-Serif" font-size="10.00">fork → A</text>
</g>
<!-- b180 -->
<g id="node6" class="node">
<title>b180</title>
<path fill="#e9ecef" stroke="#33445a" d="M498.5,-362C498.5,-362 375.5,-362 375.5,-362 369.5,-362 363.5,-356 363.5,-350 363.5,-350 363.5,-338 363.5,-338 363.5,-332 369.5,-326 375.5,-326 375.5,-326 498.5,-326 498.5,-326 504.5,-326 510.5,-332 510.5,-338 510.5,-338 510.5,-350 510.5,-350 510.5,-356 504.5,-362 498.5,-362"/>
<text text-anchor="middle" x="437" y="-341.2" font-family="Helvetica,sans-Serif" font-size="11.00">Branch B → 180 Ringing</text>
</g>
<!-- fork&#45;&gt;b180 -->
<g id="edge5" class="edge">
<title>fork&#45;&gt;b180</title>
<path fill="none" stroke="#33445a" d="M389.52,-462.84C392.75,-457.25 396.19,-450.95 399,-445 410.4,-420.86 420.97,-392.31 428.06,-371.91"/>
<polygon fill="#33445a" stroke="#33445a" points="431.41,-372.92 431.34,-362.32 424.79,-370.65 431.41,-372.92"/>
<text text-anchor="middle" x="424.5" y="-437" font-family="Helvetica,sans-Serif" font-size="10.00">fork → B</text>
</g>
<!-- a200 -->
<g id="node4" class="node">
<title>a200</title>
<path fill="#d3f9d8" stroke="#33445a" d="M373,-308C373,-308 245,-308 245,-308 239,-308 233,-302 233,-296 233,-296 233,-284 233,-284 233,-278 239,-272 245,-272 245,-272 373,-272 373,-272 379,-272 385,-278 385,-284 385,-284 385,-296 385,-296 385,-302 379,-308 373,-308"/>
<text text-anchor="middle" x="309" y="-293.2" font-family="Helvetica,sans-Serif" font-size="11.00">Branch A → 200 OK</text>
<text text-anchor="middle" x="309" y="-281.2" font-family="Helvetica,sans-Serif" font-size="11.00">(answered first — WINS)</text>
</g>
<!-- a180&#45;&gt;a200 -->
<g id="edge3" class="edge">
<title>a180&#45;&gt;a200</title>
<path fill="none" stroke="#33445a" d="M312.32,-379.71C309.74,-374.22 307.31,-368.01 306,-362 302.89,-347.73 303.3,-331.48 304.64,-318.13"/>
<polygon fill="#33445a" stroke="#33445a" points="308.12,-318.49 305.86,-308.14 301.17,-317.64 308.12,-318.49"/>
<text text-anchor="middle" x="330" y="-341.5" font-family="Helvetica,sans-Serif" font-size="10.00">answered</text>
</g>
<!-- aack -->
<g id="node5" class="node">
<title>aack</title>
<path fill="#dbeafe" stroke="#33445a" d="M278.5,-171C278.5,-171 147.5,-171 147.5,-171 141.5,-171 135.5,-165 135.5,-159 135.5,-159 135.5,-147 135.5,-147 135.5,-141 141.5,-135 147.5,-135 147.5,-135 278.5,-135 278.5,-135 284.5,-135 290.5,-141 290.5,-147 290.5,-147 290.5,-159 290.5,-159 290.5,-165 284.5,-171 278.5,-171"/>
<text text-anchor="middle" x="213" y="-156.2" font-family="Helvetica,sans-Serif" font-size="11.00">Proxy/Caller → ACK to A</text>
<text text-anchor="middle" x="213" y="-144.2" font-family="Helvetica,sans-Serif" font-size="11.00">dialog established with A</text>
</g>
<!-- a200&#45;&gt;aack -->
<g id="edge4" class="edge">
<title>a200&#45;&gt;aack</title>
<path fill="none" stroke="#33445a" d="M251.49,-271.81C243.29,-267.18 235.71,-261.34 230,-254 214,-233.43 210.82,-203.22 210.98,-181.39"/>
<polygon fill="#33445a" stroke="#33445a" points="214.49,-181.24 211.3,-171.14 207.49,-181.02 214.49,-181.24"/>
<text text-anchor="middle" x="266.5" y="-246" font-family="Helvetica,sans-Serif" font-size="10.00">confirm winner</text>
</g>
<!-- bcanc -->
<g id="node7" class="node">
<title>bcanc</title>
<path fill="#ffe8cc" stroke="#33445a" d="M424.5,-225C424.5,-225 273.5,-225 273.5,-225 267.5,-225 261.5,-219 261.5,-213 261.5,-213 261.5,-201 261.5,-201 261.5,-195 267.5,-189 273.5,-189 273.5,-189 424.5,-189 424.5,-189 430.5,-189 436.5,-195 436.5,-201 436.5,-201 436.5,-213 436.5,-213 436.5,-219 430.5,-225 424.5,-225"/>
<text text-anchor="middle" x="349" y="-210.2" font-family="Helvetica,sans-Serif" font-size="11.00">Proxy → CANCEL to B</text>
<text text-anchor="middle" x="349" y="-198.2" font-family="Helvetica,sans-Serif" font-size="11.00">(a winner already answered)</text>
</g>
<!-- a200&#45;&gt;bcanc -->
<g id="edge6" class="edge">
<title>a200&#45;&gt;bcanc</title>
<path fill="none" stroke="#f08c00" d="M306.19,-271.66C305.51,-262.72 305.93,-251.86 310,-243 311.7,-239.29 314.01,-235.81 316.65,-232.59"/>
<polygon fill="#f08c00" stroke="#f08c00" points="319.39,-234.78 323.76,-225.13 314.32,-229.95 319.39,-234.78"/>
<text text-anchor="middle" x="366.5" y="-246" font-family="Helvetica,sans-Serif" font-size="10.00">race: A won → cancel B</text>
</g>
<!-- note -->
<g id="node9" class="node">
<title>note</title>
<polygon fill="#fff3bf" stroke="#b8860b" points="424.5,-44 19.5,-44 19.5,0 430.5,0 430.5,-38 424.5,-44"/>
<polyline fill="none" stroke="#b8860b" points="424.5,-44 424.5,-38 "/>
<polyline fill="none" stroke="#b8860b" points="430.5,-38 424.5,-38 "/>
<text text-anchor="middle" x="225" y="-31.2" font-family="Helvetica,sans-Serif" font-size="11.00">The CANCEL race: the first 200 OK wins; the proxy CANCELs the other</text>
<text text-anchor="middle" x="225" y="-19.2" font-family="Helvetica,sans-Serif" font-size="11.00">branch, which replies 487. Security note: forking multiplies signalling —</text>
<text text-anchor="middle" x="225" y="-7.2" font-family="Helvetica,sans-Serif" font-size="11.00">rate&#45;limit and watch for fork&#45;bomb / amplification abuse (T8).</text>
</g>
<!-- aack&#45;&gt;note -->
<g id="edge9" class="edge">
<title>aack&#45;&gt;note</title>
<path fill="none" stroke="#b8860b" stroke-dasharray="5,2" d="M214.59,-134.87C216.77,-111.43 220.68,-69.39 223.04,-44.06"/>
</g>
<!-- b180&#45;&gt;bcanc -->
<!-- b487 -->
<g id="node8" class="node">
<title>b487</title>
<path fill="#ffc9c9" stroke="#33445a" d="M445,-117C445,-117 253,-117 253,-117 247,-117 241,-111 241,-105 241,-105 241,-93 241,-93 241,-87 247,-81 253,-81 253,-81 445,-81 445,-81 451,-81 457,-87 457,-93 457,-93 457,-105 457,-105 457,-111 451,-117 445,-117"/>
<text text-anchor="middle" x="349" y="-102.2" font-family="Helvetica,sans-Serif" font-size="11.00">Branch B → 487 Request Terminated</text>
<text text-anchor="middle" x="349" y="-90.2" font-family="Helvetica,sans-Serif" font-size="11.00">(+ 200 OK to the CANCEL)</text>
</g>
<!-- bcanc&#45;&gt;b487 -->
<g id="edge8" class="edge">
<title>bcanc&#45;&gt;b487</title>
<path fill="none" stroke="#33445a" d="M349,-188.97C349,-172.38 349,-146.88 349,-127.43"/>
<polygon fill="#33445a" stroke="#33445a" points="352.5,-127.34 349,-117.34 345.5,-127.34 352.5,-127.34"/>
<text text-anchor="middle" x="385.5" y="-150.5" font-family="Helvetica,sans-Serif" font-size="10.00">B stops ringing</text>
</g>
<!-- b487&#45;&gt;note -->
<g id="edge10" class="edge">
<title>b487&#45;&gt;note</title>
<path fill="none" stroke="#b8860b" stroke-dasharray="5,2" d="M320.86,-80.98C302.86,-70.09 279.35,-55.87 260.12,-44.24"/>
</g>
</g>
</svg>
