<?xml version="1.0" encoding="UTF-8" standalone="no"?>
<!DOCTYPE svg PUBLIC "-//W3C//DTD SVG 1.1//EN"
 "http://www.w3.org/Graphics/SVG/1.1/DTD/svg11.dtd">
<!-- Generated by graphviz version 2.42.4 (0)
 -->
<!-- Title: sip_nat_traversal Pages: 1 -->
<svg width="566pt" height="680pt"
 viewBox="0.00 0.00 566.00 680.00" xmlns="http://www.w3.org/2000/svg" xmlns:xlink="http://www.w3.org/1999/xlink">
<g id="graph0" class="graph" transform="scale(1 1) rotate(0) translate(4 676)">
<title>sip_nat_traversal</title>
<polygon fill="white" stroke="transparent" points="-4,4 -4,-676 562,-676 562,4 -4,4"/>
<text text-anchor="middle" x="279" y="-658.4" font-family="Helvetica,sans-Serif" font-size="12.00">NAT traversal — why VoIP breaks through NAT, and the two fix paths</text>
<g id="clust1" class="cluster">
<title>cluster_problem</title>
<path fill="none" stroke="#f0a9a9" d="M132,-424C132,-424 438,-424 438,-424 444,-424 450,-430 450,-436 450,-436 450,-631 450,-631 450,-637 444,-643 438,-643 438,-643 132,-643 132,-643 126,-643 120,-637 120,-631 120,-631 120,-436 120,-436 120,-430 126,-424 132,-424"/>
<text text-anchor="middle" x="285" y="-629.4" font-family="Helvetica,sans-Serif" font-size="12.00">The problem — private addresses inside the payload</text>
</g>
<g id="clust2" class="cluster">
<title>cluster_server</title>
<path fill="none" stroke="#9fb3c8" d="M20,-239C20,-239 266,-239 266,-239 272,-239 278,-245 278,-251 278,-251 278,-383 278,-383 278,-389 272,-395 266,-395 266,-395 20,-395 20,-395 14,-395 8,-389 8,-383 8,-383 8,-251 8,-251 8,-245 14,-239 20,-239"/>
<text text-anchor="middle" x="143" y="-381.4" font-family="Helvetica,sans-Serif" font-size="12.00">Fix A · Server&#45;side (you control the server)</text>
</g>
<g id="clust3" class="cluster">
<title>cluster_client</title>
<path fill="none" stroke="#9fb3c8" d="M298,-73C298,-73 538,-73 538,-73 544,-73 550,-79 550,-85 550,-85 550,-383 550,-383 550,-389 544,-395 538,-395 538,-395 298,-395 298,-395 292,-395 286,-389 286,-383 286,-383 286,-85 286,-85 286,-79 292,-73 298,-73"/>
<text text-anchor="middle" x="418" y="-381.4" font-family="Helvetica,sans-Serif" font-size="12.00">Fix B · Client&#45;side (STUN / TURN / ICE)</text>
</g>
<!-- p0 -->
<g id="node1" class="node">
<title>p0</title>
<path fill="#dbeafe" stroke="#33445a" d="M395,-614C395,-614 175,-614 175,-614 169,-614 163,-608 163,-602 163,-602 163,-590 163,-590 163,-584 169,-578 175,-578 175,-578 395,-578 395,-578 401,-578 407,-584 407,-590 407,-590 407,-602 407,-602 407,-608 401,-614 395,-614"/>
<text text-anchor="middle" x="285" y="-599.2" font-family="Helvetica,sans-Serif" font-size="11.00">UAC (behind NAT) → REGISTER / INVITE</text>
<text text-anchor="middle" x="285" y="-587.2" font-family="Helvetica,sans-Serif" font-size="11.00">Contact + SDP c=/m= carry a PRIVATE IP</text>
</g>
<!-- p1 -->
<g id="node2" class="node">
<title>p1</title>
<path fill="#ffe8cc" stroke="#33445a" d="M361.5,-541C361.5,-541 208.5,-541 208.5,-541 202.5,-541 196.5,-535 196.5,-529 196.5,-529 196.5,-517 196.5,-517 196.5,-511 202.5,-505 208.5,-505 208.5,-505 361.5,-505 361.5,-505 367.5,-505 373.5,-511 373.5,-517 373.5,-517 373.5,-529 373.5,-529 373.5,-535 367.5,-541 361.5,-541"/>
<text text-anchor="middle" x="285" y="-526.2" font-family="Helvetica,sans-Serif" font-size="11.00">NAT rewrites packet headers</text>
<text text-anchor="middle" x="285" y="-514.2" font-family="Helvetica,sans-Serif" font-size="11.00">but NOT the SIP/SDP payload</text>
</g>
<!-- p0&#45;&gt;p1 -->
<g id="edge1" class="edge">
<title>p0&#45;&gt;p1</title>
<path fill="none" stroke="#33445a" d="M285,-577.81C285,-569.79 285,-560.05 285,-551.07"/>
<polygon fill="#33445a" stroke="#33445a" points="288.5,-551.03 285,-541.03 281.5,-551.03 288.5,-551.03"/>
</g>
<!-- p2 -->
<g id="node3" class="node">
<title>p2</title>
<path fill="#ffc9c9" stroke="#33445a" d="M418,-468C418,-468 152,-468 152,-468 146,-468 140,-462 140,-456 140,-456 140,-444 140,-444 140,-438 146,-432 152,-432 152,-432 418,-432 418,-432 424,-432 430,-438 430,-444 430,-444 430,-456 430,-456 430,-462 424,-468 418,-468"/>
<text text-anchor="middle" x="285" y="-453.2" font-family="Helvetica,sans-Serif" font-size="11.00">Server sees a private IP</text>
<text text-anchor="middle" x="285" y="-441.2" font-family="Helvetica,sans-Serif" font-size="11.00">→ replies/media go nowhere (one&#45;way / no audio)</text>
</g>
<!-- p1&#45;&gt;p2 -->
<g id="edge2" class="edge">
<title>p1&#45;&gt;p2</title>
<path fill="none" stroke="#33445a" d="M285,-504.81C285,-496.79 285,-487.05 285,-478.07"/>
<polygon fill="#33445a" stroke="#33445a" points="288.5,-478.03 285,-468.03 281.5,-478.03 288.5,-478.03"/>
</g>
<!-- a0 -->
<g id="node4" class="node">
<title>a0</title>
<path fill="#d3f9d8" stroke="#33445a" d="M258,-366C258,-366 28,-366 28,-366 22,-366 16,-360 16,-354 16,-354 16,-342 16,-342 16,-336 22,-330 28,-330 28,-330 258,-330 258,-330 264,-330 270,-336 270,-342 270,-342 270,-354 270,-354 270,-360 264,-366 258,-366"/>
<text text-anchor="middle" x="143" y="-351.2" font-family="Helvetica,sans-Serif" font-size="11.00">Signalling: rport / received (RFC 3581)</text>
<text text-anchor="middle" x="143" y="-339.2" font-family="Helvetica,sans-Serif" font-size="11.00">reply to the real source, not the claimed IP</text>
</g>
<!-- p2&#45;&gt;a0 -->
<g id="edge7" class="edge">
<title>p2&#45;&gt;a0</title>
<path fill="none" stroke="#2b8a3e" d="M260.59,-431.81C237.22,-415.35 201.8,-390.41 175.94,-372.2"/>
<polygon fill="#2b8a3e" stroke="#2b8a3e" points="177.76,-369.2 167.57,-366.3 173.73,-374.92 177.76,-369.2"/>
<text text-anchor="middle" x="258" y="-406" font-family="Helvetica,sans-Serif" font-size="10.00">server fix</text>
</g>
<!-- b0 -->
<g id="node6" class="node">
<title>b0</title>
<path fill="#e7f5ff" stroke="#33445a" d="M485,-366C485,-366 321,-366 321,-366 315,-366 309,-360 309,-354 309,-354 309,-342 309,-342 309,-336 315,-330 321,-330 321,-330 485,-330 485,-330 491,-330 497,-336 497,-342 497,-342 497,-354 497,-354 497,-360 491,-366 485,-366"/>
<text text-anchor="middle" x="403" y="-345.2" font-family="Helvetica,sans-Serif" font-size="11.00">STUN: discover public mapping</text>
</g>
<!-- p2&#45;&gt;b0 -->
<g id="edge8" class="edge">
<title>p2&#45;&gt;b0</title>
<path fill="none" stroke="#2b8a3e" d="M305.28,-431.81C324.45,-415.57 353.37,-391.06 374.78,-372.91"/>
<polygon fill="#2b8a3e" stroke="#2b8a3e" points="377.22,-375.44 382.58,-366.3 372.69,-370.1 377.22,-375.44"/>
<text text-anchor="middle" x="357.5" y="-406" font-family="Helvetica,sans-Serif" font-size="10.00">client fix</text>
</g>
<!-- a1 -->
<g id="node5" class="node">
<title>a1</title>
<path fill="#d3f9d8" stroke="#33445a" d="M257,-283C257,-283 31,-283 31,-283 25,-283 19,-277 19,-271 19,-271 19,-259 19,-259 19,-253 25,-247 31,-247 31,-247 257,-247 257,-247 263,-247 269,-253 269,-259 269,-259 269,-271 269,-271 269,-277 263,-283 257,-283"/>
<text text-anchor="middle" x="144" y="-268.2" font-family="Helvetica,sans-Serif" font-size="11.00">Media: symmetric RTP + rtpengine anchor</text>
<text text-anchor="middle" x="144" y="-256.2" font-family="Helvetica,sans-Serif" font-size="11.00">+ NAT keepalives (OPTIONS/CRLF)</text>
</g>
<!-- a0&#45;&gt;a1 -->
<!-- note -->
<g id="node10" class="node">
<title>note</title>
<polygon fill="#fff3bf" stroke="#b8860b" points="394.5,-44 33.5,-44 33.5,0 400.5,0 400.5,-38 394.5,-44"/>
<polyline fill="none" stroke="#b8860b" points="394.5,-44 394.5,-38 "/>
<polyline fill="none" stroke="#b8860b" points="400.5,-38 394.5,-38 "/>
<text text-anchor="middle" x="217" y="-31.2" font-family="Helvetica,sans-Serif" font-size="11.00">Symmetric NAT defeats plain STUN → TURN relay solves it.</text>
<text text-anchor="middle" x="217" y="-19.2" font-family="Helvetica,sans-Serif" font-size="11.00">Security: keep RTP ports tight, use strict&#45;source in rtpengine,</text>
<text text-anchor="middle" x="217" y="-7.2" font-family="Helvetica,sans-Serif" font-size="11.00">and harden the TURN relay (denied&#45;peer&#45;ip toward core/mgmt).</text>
</g>
<!-- a1&#45;&gt;note -->
<g id="edge9" class="edge">
<title>a1&#45;&gt;note</title>
<path fill="none" stroke="#b8860b" stroke-dasharray="5,2" d="M149.25,-246.67C162.33,-203.5 196.32,-91.26 210.57,-44.23"/>
</g>
<!-- b1 -->
<g id="node7" class="node">
<title>b1</title>
<path fill="#ffe8cc" stroke="#33445a" d="M529.5,-283C529.5,-283 306.5,-283 306.5,-283 300.5,-283 294.5,-277 294.5,-271 294.5,-271 294.5,-259 294.5,-259 294.5,-253 300.5,-247 306.5,-247 306.5,-247 529.5,-247 529.5,-247 535.5,-247 541.5,-253 541.5,-259 541.5,-259 541.5,-271 541.5,-271 541.5,-277 535.5,-283 529.5,-283"/>
<text text-anchor="middle" x="418" y="-268.2" font-family="Helvetica,sans-Serif" font-size="11.00">Symmetric NAT? mapping differs per peer</text>
<text text-anchor="middle" x="418" y="-256.2" font-family="Helvetica,sans-Serif" font-size="11.00">→ STUN answer useless</text>
</g>
<!-- b0&#45;&gt;b1 -->
<g id="edge4" class="edge">
<title>b0&#45;&gt;b1</title>
<path fill="none" stroke="#33445a" d="M406.18,-329.82C408.15,-319.19 410.72,-305.31 412.96,-293.2"/>
<polygon fill="#33445a" stroke="#33445a" points="416.44,-293.62 414.82,-283.15 409.56,-292.35 416.44,-293.62"/>
<text text-anchor="middle" x="420.5" y="-304" font-family="Helvetica,sans-Serif" font-size="10.00">test</text>
</g>
<!-- b2 -->
<g id="node8" class="node">
<title>b2</title>
<path fill="#d3f9d8" stroke="#33445a" d="M475,-200C475,-200 357,-200 357,-200 351,-200 345,-194 345,-188 345,-188 345,-176 345,-176 345,-170 351,-164 357,-164 357,-164 475,-164 475,-164 481,-164 487,-170 487,-176 487,-176 487,-188 487,-188 487,-194 481,-200 475,-200"/>
<text text-anchor="middle" x="416" y="-179.2" font-family="Helvetica,sans-Serif" font-size="11.00">TURN: relay the media</text>
</g>
<!-- b1&#45;&gt;b2 -->
<g id="edge5" class="edge">
<title>b1&#45;&gt;b2</title>
<path fill="none" stroke="#33445a" d="M417.58,-246.82C417.31,-236.19 416.97,-222.31 416.67,-210.2"/>
<polygon fill="#33445a" stroke="#33445a" points="420.17,-210.06 416.42,-200.15 413.17,-210.24 420.17,-210.06"/>
<text text-anchor="middle" x="438.5" y="-221" font-family="Helvetica,sans-Serif" font-size="10.00">fall back</text>
</g>
<!-- b3 -->
<g id="node9" class="node">
<title>b3</title>
<path fill="#d3f9d8" stroke="#33445a" d="M514.5,-117C514.5,-117 307.5,-117 307.5,-117 301.5,-117 295.5,-111 295.5,-105 295.5,-105 295.5,-93 295.5,-93 295.5,-87 301.5,-81 307.5,-81 307.5,-81 514.5,-81 514.5,-81 520.5,-81 526.5,-87 526.5,-93 526.5,-93 526.5,-105 526.5,-105 526.5,-111 520.5,-117 514.5,-117"/>
<text text-anchor="middle" x="411" y="-96.2" font-family="Helvetica,sans-Serif" font-size="11.00">ICE: try all candidates, use what works</text>
</g>
<!-- b2&#45;&gt;b3 -->
<g id="edge6" class="edge">
<title>b2&#45;&gt;b3</title>
<path fill="none" stroke="#33445a" d="M414.94,-163.82C414.28,-153.19 413.43,-139.31 412.68,-127.2"/>
<polygon fill="#33445a" stroke="#33445a" points="416.17,-126.92 412.06,-117.15 409.18,-127.35 416.17,-126.92"/>
<text text-anchor="middle" x="449.5" y="-138" font-family="Helvetica,sans-Serif" font-size="10.00">host/srflx/relay</text>
</g>
<!-- b3&#45;&gt;note -->
<g id="edge10" class="edge">
<title>b3&#45;&gt;note</title>
<path fill="none" stroke="#b8860b" stroke-dasharray="5,2" d="M366.98,-80.98C338.69,-70.05 301.74,-55.76 271.59,-44.11"/>
</g>
</g>
</svg>
