<?xml version="1.0" encoding="UTF-8" standalone="no"?>
<!DOCTYPE svg PUBLIC "-//W3C//DTD SVG 1.1//EN"
 "http://www.w3.org/Graphics/SVG/1.1/DTD/svg11.dtd">
<!-- Generated by graphviz version 2.42.4 (0)
 -->
<!-- Title: sip_invite_dialog Pages: 1 -->
<svg width="436pt" height="783pt"
 viewBox="0.00 0.00 436.00 783.00" xmlns="http://www.w3.org/2000/svg" xmlns:xlink="http://www.w3.org/1999/xlink">
<g id="graph0" class="graph" transform="scale(1 1) rotate(0) translate(4 779)">
<title>sip_invite_dialog</title>
<polygon fill="white" stroke="transparent" points="-4,4 -4,-779 432,-779 432,4 -4,4"/>
<text text-anchor="middle" x="214" y="-761.4" font-family="Helvetica,sans-Serif" font-size="12.00">INVITE dialog — call setup (3&#45;way transaction), media, and teardown</text>
<g id="clust1" class="cluster">
<title>cluster_setup</title>
<path fill="none" stroke="#9fb3c8" d="M55,-341C55,-341 356,-341 356,-341 362,-341 368,-347 368,-353 368,-353 368,-734 368,-734 368,-740 362,-746 356,-746 356,-746 55,-746 55,-746 49,-746 43,-740 43,-734 43,-734 43,-353 43,-353 43,-347 49,-341 55,-341"/>
<text text-anchor="middle" x="205.5" y="-732.4" font-family="Helvetica,sans-Serif" font-size="12.00">1 · Setup — the INVITE transaction (Caller → Callee)</text>
</g>
<g id="clust2" class="cluster">
<title>cluster_teardown</title>
<path fill="none" stroke="#f0c088" d="M149,-73C149,-73 279,-73 279,-73 285,-73 291,-79 291,-85 291,-85 291,-217 291,-217 291,-223 285,-229 279,-229 279,-229 149,-229 149,-229 143,-229 137,-223 137,-217 137,-217 137,-85 137,-85 137,-79 143,-73 149,-73"/>
<text text-anchor="middle" x="214" y="-215.4" font-family="Helvetica,sans-Serif" font-size="12.00">3 · Teardown</text>
</g>
<!-- s0 -->
<g id="node1" class="node">
<title>s0</title>
<path fill="#dbeafe" stroke="#33445a" d="M275,-717C275,-717 135,-717 135,-717 129,-717 123,-711 123,-705 123,-705 123,-693 123,-693 123,-687 129,-681 135,-681 135,-681 275,-681 275,-681 281,-681 287,-687 287,-693 287,-693 287,-705 287,-705 287,-711 281,-717 275,-717"/>
<text text-anchor="middle" x="205" y="-702.2" font-family="Helvetica,sans-Serif" font-size="11.00">Caller → INVITE</text>
<text text-anchor="middle" x="205" y="-690.2" font-family="Helvetica,sans-Serif" font-size="11.00">SDP offer (codecs, c=/m=)</text>
</g>
<!-- s1 -->
<g id="node2" class="node">
<title>s1</title>
<path fill="#e9ecef" stroke="#33445a" d="M255,-634C255,-634 155,-634 155,-634 149,-634 143,-628 143,-622 143,-622 143,-610 143,-610 143,-604 149,-598 155,-598 155,-598 255,-598 255,-598 261,-598 267,-604 267,-610 267,-610 267,-622 267,-622 267,-628 261,-634 255,-634"/>
<text text-anchor="middle" x="205" y="-613.2" font-family="Helvetica,sans-Serif" font-size="11.00">Callee → 100 Trying</text>
</g>
<!-- s0&#45;&gt;s1 -->
<g id="edge1" class="edge">
<title>s0&#45;&gt;s1</title>
<path fill="none" stroke="#33445a" d="M205,-680.82C205,-670.19 205,-656.31 205,-644.2"/>
<polygon fill="#33445a" stroke="#33445a" points="208.5,-644.15 205,-634.15 201.5,-644.15 208.5,-644.15"/>
<text text-anchor="middle" x="232.5" y="-655" font-family="Helvetica,sans-Serif" font-size="10.00">provisional</text>
</g>
<!-- s2 -->
<g id="node3" class="node">
<title>s2</title>
<path fill="#e9ecef" stroke="#33445a" d="M258.5,-551C258.5,-551 151.5,-551 151.5,-551 145.5,-551 139.5,-545 139.5,-539 139.5,-539 139.5,-527 139.5,-527 139.5,-521 145.5,-515 151.5,-515 151.5,-515 258.5,-515 258.5,-515 264.5,-515 270.5,-521 270.5,-527 270.5,-527 270.5,-539 270.5,-539 270.5,-545 264.5,-551 258.5,-551"/>
<text text-anchor="middle" x="205" y="-530.2" font-family="Helvetica,sans-Serif" font-size="11.00">Callee → 180 Ringing</text>
</g>
<!-- s1&#45;&gt;s2 -->
<g id="edge2" class="edge">
<title>s1&#45;&gt;s2</title>
<path fill="none" stroke="#33445a" d="M205,-597.82C205,-587.19 205,-573.31 205,-561.2"/>
<polygon fill="#33445a" stroke="#33445a" points="208.5,-561.15 205,-551.15 201.5,-561.15 208.5,-561.15"/>
<text text-anchor="middle" x="224" y="-572" font-family="Helvetica,sans-Serif" font-size="10.00">alerting</text>
</g>
<!-- s3 -->
<g id="node4" class="node">
<title>s3</title>
<path fill="#d3f9d8" stroke="#33445a" d="M246.5,-468C246.5,-468 163.5,-468 163.5,-468 157.5,-468 151.5,-462 151.5,-456 151.5,-456 151.5,-444 151.5,-444 151.5,-438 157.5,-432 163.5,-432 163.5,-432 246.5,-432 246.5,-432 252.5,-432 258.5,-438 258.5,-444 258.5,-444 258.5,-456 258.5,-456 258.5,-462 252.5,-468 246.5,-468"/>
<text text-anchor="middle" x="205" y="-453.2" font-family="Helvetica,sans-Serif" font-size="11.00">Callee → 200 OK</text>
<text text-anchor="middle" x="205" y="-441.2" font-family="Helvetica,sans-Serif" font-size="11.00">SDP answer</text>
</g>
<!-- s2&#45;&gt;s3 -->
<g id="edge3" class="edge">
<title>s2&#45;&gt;s3</title>
<path fill="none" stroke="#33445a" d="M205,-514.82C205,-504.19 205,-490.31 205,-478.2"/>
<polygon fill="#33445a" stroke="#33445a" points="208.5,-478.15 205,-468.15 201.5,-478.15 208.5,-478.15"/>
<text text-anchor="middle" x="229" y="-489" font-family="Helvetica,sans-Serif" font-size="10.00">answered</text>
</g>
<!-- s4 -->
<g id="node5" class="node">
<title>s4</title>
<path fill="#dbeafe" stroke="#33445a" d="M271.5,-385C271.5,-385 138.5,-385 138.5,-385 132.5,-385 126.5,-379 126.5,-373 126.5,-373 126.5,-361 126.5,-361 126.5,-355 132.5,-349 138.5,-349 138.5,-349 271.5,-349 271.5,-349 277.5,-349 283.5,-355 283.5,-361 283.5,-361 283.5,-373 283.5,-373 283.5,-379 277.5,-385 271.5,-385"/>
<text text-anchor="middle" x="205" y="-370.2" font-family="Helvetica,sans-Serif" font-size="11.00">Caller → ACK</text>
<text text-anchor="middle" x="205" y="-358.2" font-family="Helvetica,sans-Serif" font-size="11.00">(new transaction for 2xx)</text>
</g>
<!-- s3&#45;&gt;s4 -->
<g id="edge4" class="edge">
<title>s3&#45;&gt;s4</title>
<path fill="none" stroke="#33445a" d="M205,-431.82C205,-421.19 205,-407.31 205,-395.2"/>
<polygon fill="#33445a" stroke="#33445a" points="208.5,-395.15 205,-385.15 201.5,-395.15 208.5,-395.15"/>
<text text-anchor="middle" x="223.5" y="-406" font-family="Helvetica,sans-Serif" font-size="10.00">confirm</text>
</g>
<!-- media -->
<g id="node6" class="node">
<title>media</title>
<polygon fill="#d3f9d8" stroke="#2b8a3e" points="372.5,-302 31.5,-302 31.5,-266 378.5,-266 378.5,-296 372.5,-302"/>
<polyline fill="none" stroke="#2b8a3e" points="372.5,-302 372.5,-296 "/>
<polyline fill="none" stroke="#2b8a3e" points="378.5,-296 372.5,-296 "/>
<text text-anchor="middle" x="205" y="-287.2" font-family="Helvetica,sans-Serif" font-size="11.00">2 · Media — RTP/RTCP flows directly per the negotiated SDP</text>
<text text-anchor="middle" x="205" y="-275.2" font-family="Helvetica,sans-Serif" font-size="11.00">(separate plane, separate ports; secure with SRTP — M12)</text>
</g>
<!-- s4&#45;&gt;media -->
<g id="edge5" class="edge">
<title>s4&#45;&gt;media</title>
<path fill="none" stroke="#2b8a3e" d="M205,-348.82C205,-338.19 205,-324.31 205,-312.2"/>
<polygon fill="#2b8a3e" stroke="#2b8a3e" points="208.5,-312.15 205,-302.15 201.5,-312.15 208.5,-312.15"/>
<text text-anchor="middle" x="250" y="-323" font-family="Helvetica,sans-Serif" font-size="10.00">dialog established</text>
</g>
<!-- t0 -->
<g id="node7" class="node">
<title>t0</title>
<path fill="#ffe8cc" stroke="#33445a" d="M252.5,-200C252.5,-200 157.5,-200 157.5,-200 151.5,-200 145.5,-194 145.5,-188 145.5,-188 145.5,-176 145.5,-176 145.5,-170 151.5,-164 157.5,-164 157.5,-164 252.5,-164 252.5,-164 258.5,-164 264.5,-170 264.5,-176 264.5,-176 264.5,-188 264.5,-188 264.5,-194 258.5,-200 252.5,-200"/>
<text text-anchor="middle" x="205" y="-179.2" font-family="Helvetica,sans-Serif" font-size="11.00">Either party → BYE</text>
</g>
<!-- media&#45;&gt;t0 -->
<g id="edge7" class="edge">
<title>media&#45;&gt;t0</title>
<path fill="none" stroke="#f08c00" d="M205,-265.58C205,-250.38 205,-228.07 205,-210.46"/>
<polygon fill="#f08c00" stroke="#f08c00" points="208.5,-210.22 205,-200.22 201.5,-210.22 208.5,-210.22"/>
<text text-anchor="middle" x="225" y="-240" font-family="Helvetica,sans-Serif" font-size="10.00">hang up</text>
</g>
<!-- t1 -->
<g id="node8" class="node">
<title>t1</title>
<path fill="#d3f9d8" stroke="#33445a" d="M271,-117C271,-117 157,-117 157,-117 151,-117 145,-111 145,-105 145,-105 145,-93 145,-93 145,-87 151,-81 157,-81 157,-81 271,-81 271,-81 277,-81 283,-87 283,-93 283,-93 283,-105 283,-105 283,-111 277,-117 271,-117"/>
<text text-anchor="middle" x="214" y="-102.2" font-family="Helvetica,sans-Serif" font-size="11.00">Other party → 200 OK</text>
<text text-anchor="middle" x="214" y="-90.2" font-family="Helvetica,sans-Serif" font-size="11.00">dialog ended</text>
</g>
<!-- t0&#45;&gt;t1 -->
<g id="edge6" class="edge">
<title>t0&#45;&gt;t1</title>
<path fill="none" stroke="#33445a" d="M206.91,-163.82C208.09,-153.19 209.63,-139.31 210.98,-127.2"/>
<polygon fill="#33445a" stroke="#33445a" points="214.47,-127.48 212.09,-117.15 207.51,-126.71 214.47,-127.48"/>
<text text-anchor="middle" x="251" y="-138" font-family="Helvetica,sans-Serif" font-size="10.00">within the dialog</text>
</g>
<!-- note -->
<g id="node9" class="node">
<title>note</title>
<polygon fill="#fff3bf" stroke="#b8860b" points="392.5,-44 29.5,-44 29.5,0 398.5,0 398.5,-38 392.5,-44"/>
<polyline fill="none" stroke="#b8860b" points="392.5,-44 392.5,-38 "/>
<polyline fill="none" stroke="#b8860b" points="398.5,-38 392.5,-38 "/>
<text text-anchor="middle" x="214" y="-31.2" font-family="Helvetica,sans-Serif" font-size="11.00">Transaction = one request + its responses (INVITE..200).</text>
<text text-anchor="middle" x="214" y="-19.2" font-family="Helvetica,sans-Serif" font-size="11.00">ACK for a 2xx is a NEW end&#45;to&#45;end transaction; for non&#45;2xx it is</text>
<text text-anchor="middle" x="214" y="-7.2" font-family="Helvetica,sans-Serif" font-size="11.00">part of the INVITE transaction. Dialog = Call&#45;ID + From/To tags.</text>
</g>
<!-- t1&#45;&gt;note -->
<g id="edge8" class="edge">
<title>t1&#45;&gt;note</title>
<path fill="none" stroke="#b8860b" stroke-dasharray="5,2" d="M214,-80.98C214,-70.09 214,-55.87 214,-44.24"/>
</g>
</g>
</svg>
