<?xml version="1.0" encoding="UTF-8" standalone="no"?>
<!DOCTYPE svg PUBLIC "-//W3C//DTD SVG 1.1//EN"
 "http://www.w3.org/Graphics/SVG/1.1/DTD/svg11.dtd">
<!-- Generated by graphviz version 2.42.4 (0)
 -->
<!-- Title: RFCEvolution Pages: 1 -->
<svg width="2949pt" height="673pt"
 viewBox="0.00 0.00 2949.00 673.00" xmlns="http://www.w3.org/2000/svg" xmlns:xlink="http://www.w3.org/1999/xlink">
<g id="graph0" class="graph" transform="scale(1 1) rotate(0) translate(4 669)">
<title>RFCEvolution</title>
<polygon fill="white" stroke="transparent" points="-4,4 -4,-669 2945,-669 2945,4 -4,4"/>
<!-- y1996 -->
<g id="node1" class="node">
<title>y1996</title>
<text text-anchor="middle" x="181" y="-15.2" font-family="Helvetica,sans-Serif" font-size="11.00" fill="#333333">1996</text>
</g>
<!-- y1998 -->
<g id="node2" class="node">
<title>y1998</title>
<text text-anchor="middle" x="447" y="-15.2" font-family="Helvetica,sans-Serif" font-size="11.00" fill="#333333">1998</text>
</g>
<!-- y1996&#45;&gt;y1998 -->
<!-- y1999 -->
<g id="node3" class="node">
<title>y1999</title>
<text text-anchor="middle" x="574" y="-15.2" font-family="Helvetica,sans-Serif" font-size="11.00" fill="#333333">1999</text>
</g>
<!-- y1998&#45;&gt;y1999 -->
<!-- y2002 -->
<g id="node4" class="node">
<title>y2002</title>
<text text-anchor="middle" x="769" y="-15.2" font-family="Helvetica,sans-Serif" font-size="11.00" fill="#333333">2002</text>
</g>
<!-- y1999&#45;&gt;y2002 -->
<!-- y2003 -->
<g id="node5" class="node">
<title>y2003</title>
<text text-anchor="middle" x="908" y="-15.2" font-family="Helvetica,sans-Serif" font-size="11.00" fill="#333333">2003</text>
</g>
<!-- y2002&#45;&gt;y2003 -->
<!-- y2004 -->
<g id="node6" class="node">
<title>y2004</title>
<text text-anchor="middle" x="1027" y="-15.2" font-family="Helvetica,sans-Serif" font-size="11.00" fill="#333333">2004</text>
</g>
<!-- y2003&#45;&gt;y2004 -->
<!-- y2005 -->
<g id="node7" class="node">
<title>y2005</title>
<text text-anchor="middle" x="1146" y="-15.2" font-family="Helvetica,sans-Serif" font-size="11.00" fill="#333333">2005</text>
</g>
<!-- y2004&#45;&gt;y2005 -->
<!-- y2006 -->
<g id="node8" class="node">
<title>y2006</title>
<text text-anchor="middle" x="1286.5" y="-15.2" font-family="Helvetica,sans-Serif" font-size="11.00" fill="#333333">2006</text>
</g>
<!-- y2005&#45;&gt;y2006 -->
<!-- y2008 -->
<g id="node9" class="node">
<title>y2008</title>
<text text-anchor="middle" x="1482.5" y="-15.2" font-family="Helvetica,sans-Serif" font-size="11.00" fill="#333333">2008</text>
</g>
<!-- y2006&#45;&gt;y2008 -->
<!-- y2010 -->
<g id="node10" class="node">
<title>y2010</title>
<text text-anchor="middle" x="1612.5" y="-15.2" font-family="Helvetica,sans-Serif" font-size="11.00" fill="#333333">2010</text>
</g>
<!-- y2008&#45;&gt;y2010 -->
<!-- y2011 -->
<g id="node11" class="node">
<title>y2011</title>
<text text-anchor="middle" x="1771" y="-15.2" font-family="Helvetica,sans-Serif" font-size="11.00" fill="#333333">2011</text>
</g>
<!-- y2010&#45;&gt;y2011 -->
<!-- y2012 -->
<g id="node12" class="node">
<title>y2012</title>
<text text-anchor="middle" x="1926" y="-15.2" font-family="Helvetica,sans-Serif" font-size="11.00" fill="#333333">2012</text>
</g>
<!-- y2011&#45;&gt;y2012 -->
<!-- y2013 -->
<g id="node13" class="node">
<title>y2013</title>
<text text-anchor="middle" x="2045" y="-15.2" font-family="Helvetica,sans-Serif" font-size="11.00" fill="#333333">2013</text>
</g>
<!-- y2012&#45;&gt;y2013 -->
<!-- y2015 -->
<g id="node14" class="node">
<title>y2015</title>
<text text-anchor="middle" x="2212" y="-15.2" font-family="Helvetica,sans-Serif" font-size="11.00" fill="#333333">2015</text>
</g>
<!-- y2013&#45;&gt;y2015 -->
<!-- y2016 -->
<g id="node15" class="node">
<title>y2016</title>
<text text-anchor="middle" x="2347" y="-15.2" font-family="Helvetica,sans-Serif" font-size="11.00" fill="#333333">2016</text>
</g>
<!-- y2015&#45;&gt;y2016 -->
<!-- y2018 -->
<g id="node16" class="node">
<title>y2018</title>
<text text-anchor="middle" x="2484" y="-15.2" font-family="Helvetica,sans-Serif" font-size="11.00" fill="#333333">2018</text>
</g>
<!-- y2016&#45;&gt;y2018 -->
<!-- y2019 -->
<g id="node17" class="node">
<title>y2019</title>
<text text-anchor="middle" x="2605" y="-15.2" font-family="Helvetica,sans-Serif" font-size="11.00" fill="#333333">2019</text>
</g>
<!-- y2018&#45;&gt;y2019 -->
<!-- y2020 -->
<g id="node18" class="node">
<title>y2020</title>
<text text-anchor="middle" x="2741" y="-15.2" font-family="Helvetica,sans-Serif" font-size="11.00" fill="#333333">2020</text>
</g>
<!-- y2019&#45;&gt;y2020 -->
<!-- y2021 -->
<g id="node19" class="node">
<title>y2021</title>
<text text-anchor="middle" x="2892" y="-15.2" font-family="Helvetica,sans-Serif" font-size="11.00" fill="#333333">2021</text>
</g>
<!-- y2020&#45;&gt;y2021 -->
<!-- rfc2543 -->
<g id="node20" class="node">
<title>rfc2543</title>
<path fill="#eeeeee" stroke="#555555" stroke-dasharray="5,2" d="M596,-362C596,-362 552,-362 552,-362 546,-362 540,-356 540,-350 540,-350 540,-338 540,-338 540,-332 546,-326 552,-326 552,-326 596,-326 596,-326 602,-326 608,-332 608,-338 608,-338 608,-350 608,-350 608,-356 602,-362 596,-362"/>
<text text-anchor="middle" x="574" y="-347.2" font-family="Helvetica,sans-Serif" font-size="11.00" fill="#888888">RFC 2543</text>
<text text-anchor="middle" x="574" y="-335.2" font-family="Helvetica,sans-Serif" font-size="11.00" fill="#888888">SIP</text>
</g>
<!-- rfc3261 -->
<g id="node21" class="node">
<title>rfc3261</title>
<path fill="#bbdefb" stroke="#555555" d="M791,-362C791,-362 747,-362 747,-362 741,-362 735,-356 735,-350 735,-350 735,-338 735,-338 735,-332 741,-326 747,-326 747,-326 791,-326 791,-326 797,-326 803,-332 803,-338 803,-338 803,-350 803,-350 803,-356 797,-362 791,-362"/>
<text text-anchor="middle" x="769" y="-347.2" font-family="Helvetica,sans-Serif" font-size="11.00" fill="#333333">RFC 3261</text>
<text text-anchor="middle" x="769" y="-335.2" font-family="Helvetica,sans-Serif" font-size="11.00" fill="#333333">SIP core</text>
</g>
<!-- rfc2543&#45;&gt;rfc3261 -->
<g id="edge19" class="edge">
<title>rfc2543&#45;&gt;rfc3261</title>
<path fill="none" stroke="#d32f2f" stroke-width="2" d="M608.18,-344C640.45,-344 689.64,-344 724.92,-344"/>
<polygon fill="#d32f2f" stroke="#d32f2f" stroke-width="2" points="724.93,-347.5 734.93,-344 724.93,-340.5 724.93,-347.5"/>
<text text-anchor="middle" x="665.5" y="-346.6" font-family="Helvetica,sans-Serif" font-size="8.00" fill="#d32f2f">replaced by</text>
</g>
<!-- rfc3262 -->
<g id="node22" class="node">
<title>rfc3262</title>
<path fill="#bbdefb" stroke="#555555" d="M791,-290C791,-290 747,-290 747,-290 741,-290 735,-284 735,-278 735,-278 735,-266 735,-266 735,-260 741,-254 747,-254 747,-254 791,-254 791,-254 797,-254 803,-260 803,-266 803,-266 803,-278 803,-278 803,-284 797,-290 791,-290"/>
<text text-anchor="middle" x="769" y="-275.2" font-family="Helvetica,sans-Serif" font-size="11.00" fill="#333333">RFC 3262</text>
<text text-anchor="middle" x="769" y="-263.2" font-family="Helvetica,sans-Serif" font-size="11.00" fill="#333333">PRACK</text>
</g>
<!-- rfc3262&#45;&gt;rfc3261 -->
<g id="edge25" class="edge">
<title>rfc3262&#45;&gt;rfc3261</title>
<path fill="none" stroke="#9e9e9e" d="M769,-290.28C769,-298.83 769,-307.37 769,-315.92"/>
<polygon fill="#9e9e9e" stroke="#9e9e9e" points="765.5,-315.95 769,-325.95 772.5,-315.95 765.5,-315.95"/>
</g>
<!-- rfc3263 -->
<g id="node23" class="node">
<title>rfc3263</title>
<path fill="#bbdefb" stroke="#555555" d="M811,-236C811,-236 727,-236 727,-236 721,-236 715,-230 715,-224 715,-224 715,-212 715,-212 715,-206 721,-200 727,-200 727,-200 811,-200 811,-200 817,-200 823,-206 823,-212 823,-212 823,-224 823,-224 823,-230 817,-236 811,-236"/>
<text text-anchor="middle" x="769" y="-221.2" font-family="Helvetica,sans-Serif" font-size="11.00" fill="#333333">RFC 3263</text>
<text text-anchor="middle" x="769" y="-209.2" font-family="Helvetica,sans-Serif" font-size="11.00" fill="#333333">Locating servers</text>
</g>
<!-- rfc3263&#45;&gt;rfc3261 -->
<g id="edge26" class="edge">
<title>rfc3263&#45;&gt;rfc3261</title>
<path fill="none" stroke="#9e9e9e" d="M714.99,-223.95C696.2,-228.91 676.96,-237.87 665.5,-254 656.23,-267.04 657.21,-276.32 665.5,-290 678.54,-311.51 703.27,-324.86 725.29,-332.9"/>
<polygon fill="#9e9e9e" stroke="#9e9e9e" points="724.24,-336.24 734.83,-336.13 726.48,-329.61 724.24,-336.24"/>
</g>
<!-- rfc3264 -->
<g id="node24" class="node">
<title>rfc3264</title>
<path fill="#c8e6c9" stroke="#555555" d="M801.5,-182C801.5,-182 736.5,-182 736.5,-182 730.5,-182 724.5,-176 724.5,-170 724.5,-170 724.5,-158 724.5,-158 724.5,-152 730.5,-146 736.5,-146 736.5,-146 801.5,-146 801.5,-146 807.5,-146 813.5,-152 813.5,-158 813.5,-158 813.5,-170 813.5,-170 813.5,-176 807.5,-182 801.5,-182"/>
<text text-anchor="middle" x="769" y="-167.2" font-family="Helvetica,sans-Serif" font-size="11.00" fill="#333333">RFC 3264</text>
<text text-anchor="middle" x="769" y="-155.2" font-family="Helvetica,sans-Serif" font-size="11.00" fill="#333333">Offer/Answer</text>
</g>
<!-- rfc3264&#45;&gt;rfc3261 -->
<g id="edge27" class="edge">
<title>rfc3264&#45;&gt;rfc3261</title>
<path fill="none" stroke="#9e9e9e" d="M724.4,-167.77C702.89,-172.09 678.89,-181.16 665.5,-200 642.32,-232.6 644.76,-255.79 665.5,-290 678.54,-311.51 703.27,-324.86 725.29,-332.9"/>
<polygon fill="#9e9e9e" stroke="#9e9e9e" points="724.24,-336.24 734.83,-336.13 726.48,-329.61 724.24,-336.24"/>
</g>
<!-- rfc4566 -->
<g id="node28" class="node">
<title>rfc4566</title>
<path fill="#c8e6c9" stroke="#555555" d="M1308.5,-136C1308.5,-136 1264.5,-136 1264.5,-136 1258.5,-136 1252.5,-130 1252.5,-124 1252.5,-124 1252.5,-112 1252.5,-112 1252.5,-106 1258.5,-100 1264.5,-100 1264.5,-100 1308.5,-100 1308.5,-100 1314.5,-100 1320.5,-106 1320.5,-112 1320.5,-112 1320.5,-124 1320.5,-124 1320.5,-130 1314.5,-136 1308.5,-136"/>
<text text-anchor="middle" x="1286.5" y="-121.2" font-family="Helvetica,sans-Serif" font-size="11.00" fill="#333333">RFC 4566</text>
<text text-anchor="middle" x="1286.5" y="-109.2" font-family="Helvetica,sans-Serif" font-size="11.00" fill="#333333">SDP</text>
</g>
<!-- rfc3264&#45;&gt;rfc4566 -->
<g id="edge28" class="edge">
<title>rfc3264&#45;&gt;rfc4566</title>
<path fill="none" stroke="#9e9e9e" d="M813.77,-162.25C892.49,-158.78 1063.09,-149.78 1206,-132 1217.83,-130.53 1230.58,-128.49 1242.33,-126.42"/>
<polygon fill="#9e9e9e" stroke="#9e9e9e" points="1243.13,-129.83 1252.35,-124.61 1241.88,-122.94 1243.13,-129.83"/>
</g>
<!-- rfc3265 -->
<g id="node25" class="node">
<title>rfc3265</title>
<path fill="#eeeeee" stroke="#555555" stroke-dasharray="5,2" d="M791,-416C791,-416 747,-416 747,-416 741,-416 735,-410 735,-404 735,-404 735,-392 735,-392 735,-386 741,-380 747,-380 747,-380 791,-380 791,-380 797,-380 803,-386 803,-392 803,-392 803,-404 803,-404 803,-410 797,-416 791,-416"/>
<text text-anchor="middle" x="769" y="-401.2" font-family="Helvetica,sans-Serif" font-size="11.00" fill="#888888">RFC 3265</text>
<text text-anchor="middle" x="769" y="-389.2" font-family="Helvetica,sans-Serif" font-size="11.00" fill="#888888">Events</text>
</g>
<!-- rfc6665 -->
<g id="node26" class="node">
<title>rfc6665</title>
<path fill="#bbdefb" stroke="#555555" d="M1948,-416C1948,-416 1904,-416 1904,-416 1898,-416 1892,-410 1892,-404 1892,-404 1892,-392 1892,-392 1892,-386 1898,-380 1904,-380 1904,-380 1948,-380 1948,-380 1954,-380 1960,-386 1960,-392 1960,-392 1960,-404 1960,-404 1960,-410 1954,-416 1948,-416"/>
<text text-anchor="middle" x="1926" y="-401.2" font-family="Helvetica,sans-Serif" font-size="11.00" fill="#333333">RFC 6665</text>
<text text-anchor="middle" x="1926" y="-389.2" font-family="Helvetica,sans-Serif" font-size="11.00" fill="#333333">Events</text>
</g>
<!-- rfc3265&#45;&gt;rfc6665 -->
<g id="edge23" class="edge">
<title>rfc3265&#45;&gt;rfc6665</title>
<path fill="none" stroke="#d32f2f" stroke-width="2" d="M803.22,-398C830.96,-398 871.56,-398 907,-398 907,-398 907,-398 1772,-398 1808.95,-398 1850.92,-398 1881.54,-398"/>
<polygon fill="#d32f2f" stroke="#d32f2f" stroke-width="2" points="1881.87,-401.5 1891.87,-398 1881.87,-394.5 1881.87,-401.5"/>
<text text-anchor="middle" x="1286.5" y="-400.6" font-family="Helvetica,sans-Serif" font-size="8.00" fill="#d32f2f">replaced by</text>
</g>
<!-- rfc2327 -->
<g id="node27" class="node">
<title>rfc2327</title>
<path fill="#eeeeee" stroke="#555555" stroke-dasharray="5,2" d="M469,-136C469,-136 425,-136 425,-136 419,-136 413,-130 413,-124 413,-124 413,-112 413,-112 413,-106 419,-100 425,-100 425,-100 469,-100 469,-100 475,-100 481,-106 481,-112 481,-112 481,-124 481,-124 481,-130 475,-136 469,-136"/>
<text text-anchor="middle" x="447" y="-121.2" font-family="Helvetica,sans-Serif" font-size="11.00" fill="#888888">RFC 2327</text>
<text text-anchor="middle" x="447" y="-109.2" font-family="Helvetica,sans-Serif" font-size="11.00" fill="#888888">SDP</text>
</g>
<!-- rfc2327&#45;&gt;rfc4566 -->
<g id="edge20" class="edge">
<title>rfc2327&#45;&gt;rfc4566</title>
<path fill="none" stroke="#d32f2f" stroke-width="2" d="M481.16,-118C506.35,-118 541.86,-118 573,-118 573,-118 573,-118 1147,-118 1178.98,-118 1215.12,-118 1242.46,-118"/>
<polygon fill="#d32f2f" stroke="#d32f2f" stroke-width="2" points="1242.48,-121.5 1252.48,-118 1242.48,-114.5 1242.48,-121.5"/>
<text text-anchor="middle" x="908" y="-120.6" font-family="Helvetica,sans-Serif" font-size="8.00" fill="#d32f2f">replaced by</text>
</g>
<!-- rfc8866 -->
<g id="node29" class="node">
<title>rfc8866</title>
<path fill="#c8e6c9" stroke="#555555" d="M2914,-136C2914,-136 2870,-136 2870,-136 2864,-136 2858,-130 2858,-124 2858,-124 2858,-112 2858,-112 2858,-106 2864,-100 2870,-100 2870,-100 2914,-100 2914,-100 2920,-100 2926,-106 2926,-112 2926,-112 2926,-124 2926,-124 2926,-130 2920,-136 2914,-136"/>
<text text-anchor="middle" x="2892" y="-121.2" font-family="Helvetica,sans-Serif" font-size="11.00" fill="#333333">RFC 8866</text>
<text text-anchor="middle" x="2892" y="-109.2" font-family="Helvetica,sans-Serif" font-size="11.00" fill="#333333">SDP</text>
</g>
<!-- rfc4566&#45;&gt;rfc8866 -->
<g id="edge21" class="edge">
<title>rfc4566&#45;&gt;rfc8866</title>
<path fill="none" stroke="#d32f2f" stroke-width="2" d="M1320.8,-118C1359.44,-118 1425.09,-118 1481.5,-118 1481.5,-118 1481.5,-118 2742,-118 2777.64,-118 2818.06,-118 2847.81,-118"/>
<polygon fill="#d32f2f" stroke="#d32f2f" stroke-width="2" points="2847.86,-121.5 2857.86,-118 2847.86,-114.5 2847.86,-121.5"/>
<text text-anchor="middle" x="2128.5" y="-120.6" font-family="Helvetica,sans-Serif" font-size="8.00" fill="#d32f2f">replaced by</text>
</g>
<!-- rfc1889 -->
<g id="node30" class="node">
<title>rfc1889</title>
<path fill="#eeeeee" stroke="#555555" stroke-dasharray="5,2" d="M203,-480C203,-480 159,-480 159,-480 153,-480 147,-474 147,-468 147,-468 147,-456 147,-456 147,-450 153,-444 159,-444 159,-444 203,-444 203,-444 209,-444 215,-450 215,-456 215,-456 215,-468 215,-468 215,-474 209,-480 203,-480"/>
<text text-anchor="middle" x="181" y="-465.2" font-family="Helvetica,sans-Serif" font-size="11.00" fill="#888888">RFC 1889</text>
<text text-anchor="middle" x="181" y="-453.2" font-family="Helvetica,sans-Serif" font-size="11.00" fill="#888888">RTP</text>
</g>
<!-- rfc3550 -->
<g id="node31" class="node">
<title>rfc3550</title>
<path fill="#c8e6c9" stroke="#555555" d="M930,-480C930,-480 886,-480 886,-480 880,-480 874,-474 874,-468 874,-468 874,-456 874,-456 874,-450 880,-444 886,-444 886,-444 930,-444 930,-444 936,-444 942,-450 942,-456 942,-456 942,-468 942,-468 942,-474 936,-480 930,-480"/>
<text text-anchor="middle" x="908" y="-465.2" font-family="Helvetica,sans-Serif" font-size="11.00" fill="#333333">RFC 3550</text>
<text text-anchor="middle" x="908" y="-453.2" font-family="Helvetica,sans-Serif" font-size="11.00" fill="#333333">RTP/RTCP</text>
</g>
<!-- rfc1889&#45;&gt;rfc3550 -->
<g id="edge22" class="edge">
<title>rfc1889&#45;&gt;rfc3550</title>
<path fill="none" stroke="#d32f2f" stroke-width="2" d="M215.34,-462C265.42,-462 363.04,-462 446,-462 446,-462 446,-462 770,-462 801.29,-462 836.59,-462 863.53,-462"/>
<polygon fill="#d32f2f" stroke="#d32f2f" stroke-width="2" points="863.78,-465.5 873.78,-462 863.78,-458.5 863.78,-465.5"/>
<text text-anchor="middle" x="574" y="-464.6" font-family="Helvetica,sans-Serif" font-size="8.00" fill="#d32f2f">replaced by</text>
</g>
<!-- rfc3711 -->
<g id="node32" class="node">
<title>rfc3711</title>
<path fill="#ffe0b2" stroke="#555555" d="M1049,-484C1049,-484 1005,-484 1005,-484 999,-484 993,-478 993,-472 993,-472 993,-460 993,-460 993,-454 999,-448 1005,-448 1005,-448 1049,-448 1049,-448 1055,-448 1061,-454 1061,-460 1061,-460 1061,-472 1061,-472 1061,-478 1055,-484 1049,-484"/>
<text text-anchor="middle" x="1027" y="-469.2" font-family="Helvetica,sans-Serif" font-size="11.00" fill="#333333">RFC 3711</text>
<text text-anchor="middle" x="1027" y="-457.2" font-family="Helvetica,sans-Serif" font-size="11.00" fill="#333333">SRTP</text>
</g>
<!-- rfc3711&#45;&gt;rfc3550 -->
<g id="edge29" class="edge">
<title>rfc3711&#45;&gt;rfc3550</title>
<path fill="none" stroke="#9e9e9e" d="M992.7,-464.86C980.22,-464.43 965.84,-463.94 952.57,-463.49"/>
<polygon fill="#9e9e9e" stroke="#9e9e9e" points="952.33,-459.98 942.21,-463.14 952.09,-466.98 952.33,-459.98"/>
</g>
<!-- rfc4568 -->
<g id="node33" class="node">
<title>rfc4568</title>
<path fill="#ffe0b2" stroke="#555555" d="M1308.5,-499C1308.5,-499 1264.5,-499 1264.5,-499 1258.5,-499 1252.5,-493 1252.5,-487 1252.5,-487 1252.5,-475 1252.5,-475 1252.5,-469 1258.5,-463 1264.5,-463 1264.5,-463 1308.5,-463 1308.5,-463 1314.5,-463 1320.5,-469 1320.5,-475 1320.5,-475 1320.5,-487 1320.5,-487 1320.5,-493 1314.5,-499 1308.5,-499"/>
<text text-anchor="middle" x="1286.5" y="-484.2" font-family="Helvetica,sans-Serif" font-size="11.00" fill="#333333">RFC 4568</text>
<text text-anchor="middle" x="1286.5" y="-472.2" font-family="Helvetica,sans-Serif" font-size="11.00" fill="#333333">SDES</text>
</g>
<!-- rfc4568&#45;&gt;rfc3711 -->
<g id="edge30" class="edge">
<title>rfc4568&#45;&gt;rfc3711</title>
<path fill="none" stroke="#9e9e9e" d="M1252.49,-479.08C1206.3,-476.39 1122.33,-471.49 1071.21,-468.52"/>
<polygon fill="#9e9e9e" stroke="#9e9e9e" points="1071.32,-465.02 1061.14,-467.93 1070.92,-472.01 1071.32,-465.02"/>
</g>
<!-- rfc5764 -->
<g id="node34" class="node">
<title>rfc5764</title>
<path fill="#ffe0b2" stroke="#555555" d="M1638,-483C1638,-483 1587,-483 1587,-483 1581,-483 1575,-477 1575,-471 1575,-471 1575,-459 1575,-459 1575,-453 1581,-447 1587,-447 1587,-447 1638,-447 1638,-447 1644,-447 1650,-453 1650,-459 1650,-459 1650,-471 1650,-471 1650,-477 1644,-483 1638,-483"/>
<text text-anchor="middle" x="1612.5" y="-468.2" font-family="Helvetica,sans-Serif" font-size="11.00" fill="#333333">RFC 5764</text>
<text text-anchor="middle" x="1612.5" y="-456.2" font-family="Helvetica,sans-Serif" font-size="11.00" fill="#333333">DTLS&#45;SRTP</text>
</g>
<!-- rfc5764&#45;&gt;rfc3711 -->
<g id="edge31" class="edge">
<title>rfc5764&#45;&gt;rfc3711</title>
<path fill="none" stroke="#9e9e9e" d="M1574.77,-462.51C1506.88,-458.23 1357.17,-450.27 1231,-454 1175.81,-455.63 1112.3,-459.75 1071.22,-462.7"/>
<polygon fill="#9e9e9e" stroke="#9e9e9e" points="1070.74,-459.23 1061.02,-463.45 1071.25,-466.21 1070.74,-459.23"/>
</g>
<!-- rfc2617 -->
<g id="node35" class="node">
<title>rfc2617</title>
<path fill="#eeeeee" stroke="#555555" stroke-dasharray="5,2" d="M604,-545C604,-545 544,-545 544,-545 538,-545 532,-539 532,-533 532,-533 532,-521 532,-521 532,-515 538,-509 544,-509 544,-509 604,-509 604,-509 610,-509 616,-515 616,-521 616,-521 616,-533 616,-533 616,-539 610,-545 604,-545"/>
<text text-anchor="middle" x="574" y="-530.2" font-family="Helvetica,sans-Serif" font-size="11.00" fill="#888888">RFC 2617</text>
<text text-anchor="middle" x="574" y="-518.2" font-family="Helvetica,sans-Serif" font-size="11.00" fill="#888888">HTTP Digest</text>
</g>
<!-- rfc7616 -->
<g id="node36" class="node">
<title>rfc7616</title>
<path fill="#b2dfdb" stroke="#555555" d="M2234,-545C2234,-545 2190,-545 2190,-545 2184,-545 2178,-539 2178,-533 2178,-533 2178,-521 2178,-521 2178,-515 2184,-509 2190,-509 2190,-509 2234,-509 2234,-509 2240,-509 2246,-515 2246,-521 2246,-521 2246,-533 2246,-533 2246,-539 2240,-545 2234,-545"/>
<text text-anchor="middle" x="2212" y="-530.2" font-family="Helvetica,sans-Serif" font-size="11.00" fill="#333333">RFC 7616</text>
<text text-anchor="middle" x="2212" y="-518.2" font-family="Helvetica,sans-Serif" font-size="11.00" fill="#333333">Digest</text>
</g>
<!-- rfc2617&#45;&gt;rfc7616 -->
<g id="edge24" class="edge">
<title>rfc2617&#45;&gt;rfc7616</title>
<path fill="none" stroke="#d32f2f" stroke-width="2" d="M616.04,-527C655.11,-527 715.56,-527 768,-527 768,-527 768,-527 2046,-527 2087.23,-527 2134.25,-527 2167.52,-527"/>
<polygon fill="#d32f2f" stroke="#d32f2f" stroke-width="2" points="2167.82,-530.5 2177.82,-527 2167.82,-523.5 2167.82,-530.5"/>
<text text-anchor="middle" x="1391.5" y="-529.6" font-family="Helvetica,sans-Serif" font-size="8.00" fill="#d32f2f">replaced by</text>
</g>
<!-- rfc8760 -->
<g id="node37" class="node">
<title>rfc8760</title>
<path fill="#b2dfdb" stroke="#555555" d="M2780,-182C2780,-182 2702,-182 2702,-182 2696,-182 2690,-176 2690,-170 2690,-170 2690,-158 2690,-158 2690,-152 2696,-146 2702,-146 2702,-146 2780,-146 2780,-146 2786,-146 2792,-152 2792,-158 2792,-158 2792,-170 2792,-170 2792,-176 2786,-182 2780,-182"/>
<text text-anchor="middle" x="2741" y="-167.2" font-family="Helvetica,sans-Serif" font-size="11.00" fill="#333333">RFC 8760</text>
<text text-anchor="middle" x="2741" y="-155.2" font-family="Helvetica,sans-Serif" font-size="11.00" fill="#333333">Digest SHA&#45;256</text>
</g>
<!-- rfc8760&#45;&gt;rfc3261 -->
<g id="edge36" class="edge">
<title>rfc8760&#45;&gt;rfc3261</title>
<path fill="none" stroke="#9e9e9e" d="M2689.91,-161.81C2607.53,-158.98 2438.49,-156.39 2297,-175 2090.3,-202.18 2047.27,-254.7 1841,-285 1445.11,-343.16 959.28,-345.25 813.39,-344.42"/>
<polygon fill="#9e9e9e" stroke="#9e9e9e" points="813.11,-340.92 803.08,-344.36 813.06,-347.92 813.11,-340.92"/>
</g>
<!-- rfc8224 -->
<g id="node38" class="node">
<title>rfc8224</title>
<path fill="#e1bee7" stroke="#555555" d="M2506,-328C2506,-328 2462,-328 2462,-328 2456,-328 2450,-322 2450,-316 2450,-316 2450,-304 2450,-304 2450,-298 2456,-292 2462,-292 2462,-292 2506,-292 2506,-292 2512,-292 2518,-298 2518,-304 2518,-304 2518,-316 2518,-316 2518,-322 2512,-328 2506,-328"/>
<text text-anchor="middle" x="2484" y="-313.2" font-family="Helvetica,sans-Serif" font-size="11.00" fill="#333333">RFC 8224</text>
<text text-anchor="middle" x="2484" y="-301.2" font-family="Helvetica,sans-Serif" font-size="11.00" fill="#333333">STIR</text>
</g>
<!-- rfc8225 -->
<g id="node39" class="node">
<title>rfc8225</title>
<path fill="#e1bee7" stroke="#555555" d="M2506,-220C2506,-220 2462,-220 2462,-220 2456,-220 2450,-214 2450,-208 2450,-208 2450,-196 2450,-196 2450,-190 2456,-184 2462,-184 2462,-184 2506,-184 2506,-184 2512,-184 2518,-190 2518,-196 2518,-196 2518,-208 2518,-208 2518,-214 2512,-220 2506,-220"/>
<text text-anchor="middle" x="2484" y="-205.2" font-family="Helvetica,sans-Serif" font-size="11.00" fill="#333333">RFC 8225</text>
<text text-anchor="middle" x="2484" y="-193.2" font-family="Helvetica,sans-Serif" font-size="11.00" fill="#333333">PASSporT</text>
</g>
<!-- rfc8224&#45;&gt;rfc8225 -->
<g id="edge32" class="edge">
<title>rfc8224&#45;&gt;rfc8225</title>
<path fill="none" stroke="#9e9e9e" d="M2449.85,-297.98C2439.17,-292.42 2428.59,-284.63 2422.5,-274 2414.54,-260.12 2414.54,-251.88 2422.5,-238 2426.88,-230.36 2433.57,-224.19 2440.96,-219.26"/>
<polygon fill="#9e9e9e" stroke="#9e9e9e" points="2443.01,-222.11 2449.85,-214.02 2439.46,-216.08 2443.01,-222.11"/>
</g>
<!-- rfc8226 -->
<g id="node40" class="node">
<title>rfc8226</title>
<path fill="#e1bee7" stroke="#555555" d="M2508,-274C2508,-274 2460,-274 2460,-274 2454,-274 2448,-268 2448,-262 2448,-262 2448,-250 2448,-250 2448,-244 2454,-238 2460,-238 2460,-238 2508,-238 2508,-238 2514,-238 2520,-244 2520,-250 2520,-250 2520,-262 2520,-262 2520,-268 2514,-274 2508,-274"/>
<text text-anchor="middle" x="2484" y="-259.2" font-family="Helvetica,sans-Serif" font-size="11.00" fill="#333333">RFC 8226</text>
<text text-anchor="middle" x="2484" y="-247.2" font-family="Helvetica,sans-Serif" font-size="11.00" fill="#333333">STIR certs</text>
</g>
<!-- rfc8588 -->
<g id="node41" class="node">
<title>rfc8588</title>
<path fill="#e1bee7" stroke="#555555" d="M2627,-258C2627,-258 2583,-258 2583,-258 2577,-258 2571,-252 2571,-246 2571,-246 2571,-234 2571,-234 2571,-228 2577,-222 2583,-222 2583,-222 2627,-222 2627,-222 2633,-222 2639,-228 2639,-234 2639,-234 2639,-246 2639,-246 2639,-252 2633,-258 2627,-258"/>
<text text-anchor="middle" x="2605" y="-243.2" font-family="Helvetica,sans-Serif" font-size="11.00" fill="#333333">RFC 8588</text>
<text text-anchor="middle" x="2605" y="-231.2" font-family="Helvetica,sans-Serif" font-size="11.00" fill="#333333">SHAKEN</text>
</g>
<!-- rfc8588&#45;&gt;rfc8224 -->
<g id="edge33" class="edge">
<title>rfc8588&#45;&gt;rfc8224</title>
<path fill="none" stroke="#9e9e9e" d="M2573.04,-258.21C2558.26,-266.9 2540.4,-277.41 2524.64,-286.68"/>
<polygon fill="#9e9e9e" stroke="#9e9e9e" points="2522.49,-283.89 2515.65,-291.97 2526.04,-289.92 2522.49,-283.89"/>
</g>
<!-- rfc8588&#45;&gt;rfc8226 -->
<g id="edge34" class="edge">
<title>rfc8588&#45;&gt;rfc8226</title>
<path fill="none" stroke="#9e9e9e" d="M2570.95,-225.79C2562.5,-223.76 2553.42,-222.95 2545,-225 2537.31,-226.87 2529.5,-229.91 2522.18,-233.37"/>
<polygon fill="#9e9e9e" stroke="#9e9e9e" points="2520.53,-230.28 2513.2,-237.92 2523.7,-236.52 2520.53,-230.28"/>
</g>
<!-- rfc9060 -->
<g id="node42" class="node">
<title>rfc9060</title>
<path fill="#e1bee7" stroke="#555555" d="M2929,-190C2929,-190 2855,-190 2855,-190 2849,-190 2843,-184 2843,-178 2843,-178 2843,-166 2843,-166 2843,-160 2849,-154 2855,-154 2855,-154 2929,-154 2929,-154 2935,-154 2941,-160 2941,-166 2941,-166 2941,-178 2941,-178 2941,-184 2935,-190 2929,-190"/>
<text text-anchor="middle" x="2892" y="-175.2" font-family="Helvetica,sans-Serif" font-size="11.00" fill="#333333">RFC 9060</text>
<text text-anchor="middle" x="2892" y="-163.2" font-family="Helvetica,sans-Serif" font-size="11.00" fill="#333333">Delegate certs</text>
</g>
<!-- rfc9060&#45;&gt;rfc8226 -->
<g id="edge35" class="edge">
<title>rfc9060&#45;&gt;rfc8226</title>
<path fill="none" stroke="#9e9e9e" d="M2842.81,-182.15C2826.7,-185.31 2808.63,-188.58 2792,-191 2694.32,-205.21 2667.76,-193.5 2571,-213 2559.15,-215.39 2556.07,-216.14 2545,-221 2537.39,-224.34 2529.53,-228.41 2522.11,-232.59"/>
<polygon fill="#9e9e9e" stroke="#9e9e9e" points="2519.88,-229.84 2512.99,-237.88 2523.39,-235.89 2519.88,-229.84"/>
</g>
<!-- rfc4119 -->
<g id="node43" class="node">
<title>rfc4119</title>
<path fill="#ffcdd2" stroke="#555555" d="M1168,-591C1168,-591 1124,-591 1124,-591 1118,-591 1112,-585 1112,-579 1112,-579 1112,-567 1112,-567 1112,-561 1118,-555 1124,-555 1124,-555 1168,-555 1168,-555 1174,-555 1180,-561 1180,-567 1180,-567 1180,-579 1180,-579 1180,-585 1174,-591 1168,-591"/>
<text text-anchor="middle" x="1146" y="-576.2" font-family="Helvetica,sans-Serif" font-size="11.00" fill="#333333">RFC 4119</text>
<text text-anchor="middle" x="1146" y="-564.2" font-family="Helvetica,sans-Serif" font-size="11.00" fill="#333333">PIDF&#45;LO</text>
</g>
<!-- rfc4412 -->
<g id="node44" class="node">
<title>rfc4412</title>
<path fill="#ffcdd2" stroke="#555555" d="M1330,-629C1330,-629 1243,-629 1243,-629 1237,-629 1231,-623 1231,-617 1231,-617 1231,-605 1231,-605 1231,-599 1237,-593 1243,-593 1243,-593 1330,-593 1330,-593 1336,-593 1342,-599 1342,-605 1342,-605 1342,-617 1342,-617 1342,-623 1336,-629 1330,-629"/>
<text text-anchor="middle" x="1286.5" y="-614.2" font-family="Helvetica,sans-Serif" font-size="11.00" fill="#333333">RFC 4412</text>
<text text-anchor="middle" x="1286.5" y="-602.2" font-family="Helvetica,sans-Serif" font-size="11.00" fill="#333333">Resource&#45;Priority</text>
</g>
<!-- rfc5222 -->
<g id="node45" class="node">
<title>rfc5222</title>
<path fill="#ffcdd2" stroke="#555555" d="M1512,-591C1512,-591 1453,-591 1453,-591 1447,-591 1441,-585 1441,-579 1441,-579 1441,-567 1441,-567 1441,-561 1447,-555 1453,-555 1453,-555 1512,-555 1512,-555 1518,-555 1524,-561 1524,-567 1524,-567 1524,-579 1524,-579 1524,-585 1518,-591 1512,-591"/>
<text text-anchor="middle" x="1482.5" y="-576.2" font-family="Helvetica,sans-Serif" font-size="11.00" fill="#333333">RFC 5222</text>
<text text-anchor="middle" x="1482.5" y="-564.2" font-family="Helvetica,sans-Serif" font-size="11.00" fill="#333333">LoST (ECRF)</text>
</g>
<!-- rfc6442 -->
<g id="node46" class="node">
<title>rfc6442</title>
<path fill="#ffcdd2" stroke="#555555" d="M1825.5,-665C1825.5,-665 1716.5,-665 1716.5,-665 1710.5,-665 1704.5,-659 1704.5,-653 1704.5,-653 1704.5,-641 1704.5,-641 1704.5,-635 1710.5,-629 1716.5,-629 1716.5,-629 1825.5,-629 1825.5,-629 1831.5,-629 1837.5,-635 1837.5,-641 1837.5,-641 1837.5,-653 1837.5,-653 1837.5,-659 1831.5,-665 1825.5,-665"/>
<text text-anchor="middle" x="1771" y="-650.2" font-family="Helvetica,sans-Serif" font-size="11.00" fill="#333333">RFC 6442</text>
<text text-anchor="middle" x="1771" y="-638.2" font-family="Helvetica,sans-Serif" font-size="11.00" fill="#333333">Location conveyance</text>
</g>
<!-- rfc6442&#45;&gt;rfc4119 -->
<g id="edge37" class="edge">
<title>rfc6442&#45;&gt;rfc4119</title>
<path fill="none" stroke="#9e9e9e" d="M1704.4,-637.99C1637.96,-628.78 1532.27,-613.89 1441,-600 1396.94,-593.29 1386.31,-588.82 1342,-584 1290.01,-578.35 1229.9,-575.51 1190.31,-574.15"/>
<polygon fill="#9e9e9e" stroke="#9e9e9e" points="1190.32,-570.65 1180.21,-573.82 1190.09,-577.65 1190.32,-570.65"/>
</g>
<!-- rfc6443 -->
<g id="node47" class="node">
<title>rfc6443</title>
<path fill="#ffcdd2" stroke="#555555" d="M1829,-593C1829,-593 1713,-593 1713,-593 1707,-593 1701,-587 1701,-581 1701,-581 1701,-569 1701,-569 1701,-563 1707,-557 1713,-557 1713,-557 1829,-557 1829,-557 1835,-557 1841,-563 1841,-569 1841,-569 1841,-581 1841,-581 1841,-587 1835,-593 1829,-593"/>
<text text-anchor="middle" x="1771" y="-578.2" font-family="Helvetica,sans-Serif" font-size="11.00" fill="#333333">RFC 6443</text>
<text text-anchor="middle" x="1771" y="-566.2" font-family="Helvetica,sans-Serif" font-size="11.00" fill="#333333">Emergency framework</text>
</g>
<!-- rfc6443&#45;&gt;rfc5222 -->
<g id="edge39" class="edge">
<title>rfc6443&#45;&gt;rfc5222</title>
<path fill="none" stroke="#9e9e9e" d="M1700.94,-574.52C1649.61,-574.16 1580.72,-573.68 1534.36,-573.36"/>
<polygon fill="#9e9e9e" stroke="#9e9e9e" points="1534.27,-569.85 1524.24,-573.28 1534.22,-576.85 1534.27,-569.85"/>
</g>
<!-- rfc6443&#45;&gt;rfc6442 -->
<g id="edge38" class="edge">
<title>rfc6443&#45;&gt;rfc6442</title>
<path fill="none" stroke="#9e9e9e" d="M1771,-593.28C1771,-601.83 1771,-610.37 1771,-618.92"/>
<polygon fill="#9e9e9e" stroke="#9e9e9e" points="1767.5,-618.95 1771,-628.95 1774.5,-618.95 1767.5,-618.95"/>
</g>
<!-- rfc6881 -->
<g id="node48" class="node">
<title>rfc6881</title>
<path fill="#ffcdd2" stroke="#555555" d="M2067,-629C2067,-629 2023,-629 2023,-629 2017,-629 2011,-623 2011,-617 2011,-617 2011,-605 2011,-605 2011,-599 2017,-593 2023,-593 2023,-593 2067,-593 2067,-593 2073,-593 2079,-599 2079,-605 2079,-605 2079,-617 2079,-617 2079,-623 2073,-629 2067,-629"/>
<text text-anchor="middle" x="2045" y="-614.2" font-family="Helvetica,sans-Serif" font-size="11.00" fill="#333333">RFC 6881</text>
<text text-anchor="middle" x="2045" y="-602.2" font-family="Helvetica,sans-Serif" font-size="11.00" fill="#333333">BCP 181</text>
</g>
<!-- rfc6881&#45;&gt;rfc6443 -->
<g id="edge40" class="edge">
<title>rfc6881&#45;&gt;rfc6443</title>
<path fill="none" stroke="#9e9e9e" d="M2010.71,-606.59C1971.32,-601.38 1904.38,-592.52 1851.4,-585.51"/>
<polygon fill="#9e9e9e" stroke="#9e9e9e" points="1851.71,-582.02 1841.34,-584.18 1850.8,-588.96 1851.71,-582.02"/>
</g>
<!-- rfc7852 -->
<g id="node49" class="node">
<title>rfc7852</title>
<path fill="#ffcdd2" stroke="#555555" d="M2385,-220C2385,-220 2309,-220 2309,-220 2303,-220 2297,-214 2297,-208 2297,-208 2297,-196 2297,-196 2297,-190 2303,-184 2309,-184 2309,-184 2385,-184 2385,-184 2391,-184 2397,-190 2397,-196 2397,-196 2397,-208 2397,-208 2397,-214 2391,-220 2385,-220"/>
<text text-anchor="middle" x="2347" y="-205.2" font-family="Helvetica,sans-Serif" font-size="11.00" fill="#333333">RFC 7852</text>
<text text-anchor="middle" x="2347" y="-193.2" font-family="Helvetica,sans-Serif" font-size="11.00" fill="#333333">Additional data</text>
</g>
<!-- rfc7852&#45;&gt;rfc6443 -->
<g id="edge41" class="edge">
<title>rfc7852&#45;&gt;rfc6443</title>
<path fill="none" stroke="#9e9e9e" d="M2343.63,-220.13C2334.64,-285.99 2300.31,-511.05 2246,-554 2215.88,-577.82 1978.2,-578.08 1851.28,-576.47"/>
<polygon fill="#9e9e9e" stroke="#9e9e9e" points="1851.26,-572.97 1841.22,-576.33 1851.17,-579.96 1851.26,-572.97"/>
</g>
<!-- rfc3398 -->
<g id="node50" class="node">
<title>rfc3398</title>
<path fill="#f0f4c3" stroke="#555555" d="M797,-90C797,-90 741,-90 741,-90 735,-90 729,-84 729,-78 729,-78 729,-66 729,-66 729,-60 735,-54 741,-54 741,-54 797,-54 797,-54 803,-54 809,-60 809,-66 809,-66 809,-78 809,-78 809,-84 803,-90 797,-90"/>
<text text-anchor="middle" x="769" y="-75.2" font-family="Helvetica,sans-Serif" font-size="11.00" fill="#333333">RFC 3398</text>
<text text-anchor="middle" x="769" y="-63.2" font-family="Helvetica,sans-Serif" font-size="11.00" fill="#333333">ISUP&lt;&#45;&gt;SIP</text>
</g>
<!-- rfc3398&#45;&gt;rfc3261 -->
<g id="edge43" class="edge">
<title>rfc3398&#45;&gt;rfc3261</title>
<path fill="none" stroke="#9e9e9e" d="M728.8,-89.15C705.73,-101.35 678.79,-120.17 665.5,-146 636.23,-202.91 632.32,-235.27 665.5,-290 678.54,-311.51 703.27,-324.86 725.29,-332.9"/>
<polygon fill="#9e9e9e" stroke="#9e9e9e" points="724.24,-336.24 734.83,-336.13 726.48,-329.61 724.24,-336.24"/>
</g>
<!-- rfc6116 -->
<g id="node51" class="node">
<title>rfc6116</title>
<path fill="#d7ccc8" stroke="#555555" d="M1793,-276C1793,-276 1749,-276 1749,-276 1743,-276 1737,-270 1737,-264 1737,-264 1737,-252 1737,-252 1737,-246 1743,-240 1749,-240 1749,-240 1793,-240 1793,-240 1799,-240 1805,-246 1805,-252 1805,-252 1805,-264 1805,-264 1805,-270 1799,-276 1793,-276"/>
<text text-anchor="middle" x="1771" y="-261.2" font-family="Helvetica,sans-Serif" font-size="11.00" fill="#333333">RFC 6116</text>
<text text-anchor="middle" x="1771" y="-249.2" font-family="Helvetica,sans-Serif" font-size="11.00" fill="#333333">ENUM</text>
</g>
<!-- rfc6116&#45;&gt;rfc3263 -->
<g id="edge42" class="edge">
<title>rfc6116&#45;&gt;rfc3263</title>
<path fill="none" stroke="#9e9e9e" d="M1736.82,-256.67C1593.3,-250.93 1024.62,-228.18 833.23,-220.53"/>
<polygon fill="#9e9e9e" stroke="#9e9e9e" points="833.19,-217.02 823.06,-220.12 832.91,-224.02 833.19,-217.02"/>
</g>
<!-- legend -->
<g id="node52" class="node">
<title>legend</title>
<polygon fill="#fffde7" stroke="#555555" points="356,-536 0,-536 0,-498 362,-498 362,-530 356,-536"/>
<polyline fill="none" stroke="#555555" points="356,-536 356,-530 "/>
<polyline fill="none" stroke="#555555" points="362,-530 356,-530 "/>
<text text-anchor="middle" x="181" y="-524.8" font-family="Helvetica,sans-Serif" font-size="9.00" fill="#333333">Fill = domain (signalling/media/security/auth/identity/emergency/PSTN/DNS)</text>
<text text-anchor="middle" x="181" y="-514.8" font-family="Helvetica,sans-Serif" font-size="9.00" fill="#333333">dashed grey = obsoleted &#160;&#160;| &#160;&#160;red = replaced by &#160;&#160;| &#160;&#160;grey = uses/extends</text>
<text text-anchor="middle" x="181" y="-504.8" font-family="Helvetica,sans-Serif" font-size="9.00" fill="#333333">Left &#45;&gt; right by publication year</text>
</g>
</g>
</svg>
